G04*
G04 #@! TF.GenerationSoftware,Altium Limited,Altium Designer,25.0.2 (28)*
G04*
G04 Layer_Color=8421504*
%FSLAX44Y44*%
%MOMM*%
G71*
G04*
G04 #@! TF.SameCoordinates,45B9F587-651D-48FE-9BFB-3449DA8E954A*
G04*
G04*
G04 #@! TF.FilePolarity,Positive*
G04*
G01*
G75*
%ADD15R,1.8000X1.1000*%
%ADD16R,0.9000X0.8000*%
%ADD17R,0.8000X0.8000*%
G36*
X111356Y168242D02*
Y163442D01*
X110856Y162742D01*
X106356D01*
X105856Y163442D01*
Y168242D01*
X106356Y168742D01*
X110856D01*
X111356Y168242D01*
D02*
G37*
G36*
X126002Y166400D02*
Y161394D01*
X125602Y160994D01*
X121002D01*
X120602Y161394D01*
Y166400D01*
X121002Y166800D01*
X125602D01*
X126002Y166400D01*
D02*
G37*
G36*
X167091Y165478D02*
Y160978D01*
X166591Y160478D01*
X161791D01*
X161091Y160978D01*
Y165478D01*
X161791Y165978D01*
X166591D01*
X167091Y165478D01*
D02*
G37*
G36*
X157491D02*
Y160978D01*
X156791Y160478D01*
X151991D01*
X151491Y160978D01*
Y165478D01*
X151991Y165978D01*
X156791D01*
X157491Y165478D01*
D02*
G37*
G36*
X42392Y159927D02*
Y154921D01*
X41992Y154521D01*
X37392D01*
X36992Y154921D01*
Y159927D01*
X37392Y160327D01*
X41992D01*
X42392Y159927D01*
D02*
G37*
G36*
X111356Y158442D02*
Y153642D01*
X110856Y153142D01*
X106356D01*
X105856Y153642D01*
Y158442D01*
X106356Y159142D01*
X110856D01*
X111356Y158442D01*
D02*
G37*
G36*
X126002Y157894D02*
Y152888D01*
X125602Y152487D01*
X121002D01*
X120602Y152888D01*
Y157894D01*
X121002Y158294D01*
X125602D01*
X126002Y157894D01*
D02*
G37*
G36*
X26880Y153350D02*
Y148550D01*
X26380Y147850D01*
X21880D01*
X21380Y148550D01*
Y153350D01*
X21880Y153850D01*
X26380D01*
X26880Y153350D01*
D02*
G37*
G36*
X42392Y151421D02*
Y146414D01*
X41992Y146014D01*
X37392D01*
X36992Y146414D01*
Y151421D01*
X37392Y151821D01*
X41992D01*
X42392Y151421D01*
D02*
G37*
G36*
X26880Y143550D02*
Y138750D01*
X26380Y138250D01*
X21880D01*
X21380Y138750D01*
Y143550D01*
X21880Y144250D01*
X26380D01*
X26880Y143550D01*
D02*
G37*
G36*
X120311Y140657D02*
X120377Y140651D01*
X120441Y140640D01*
X120505Y140625D01*
X120568Y140606D01*
X120629Y140583D01*
X120688Y140556D01*
X120746Y140526D01*
X120801Y140491D01*
X120855Y140453D01*
X120905Y140411D01*
X120953Y140367D01*
X120998Y140319D01*
X121039Y140268D01*
X121077Y140215D01*
X121112Y140160D01*
X121143Y140102D01*
X121170Y140042D01*
X121193Y139981D01*
X121212Y139918D01*
X121227Y139854D01*
X121237Y139790D01*
X121244Y139725D01*
X121246Y139660D01*
Y133659D01*
X121244Y133594D01*
X121237Y133529D01*
X121227Y133464D01*
X121212Y133401D01*
X121193Y133338D01*
X121170Y133277D01*
X121143Y133217D01*
X121112Y133160D01*
X121077Y133104D01*
X121039Y133051D01*
X120998Y133000D01*
X120953Y132952D01*
X120905Y132908D01*
X120855Y132866D01*
X120801Y132828D01*
X120746Y132793D01*
X120688Y132763D01*
X120629Y132736D01*
X120568Y132713D01*
X120505Y132694D01*
X120441Y132679D01*
X120377Y132668D01*
X120311Y132662D01*
X120246Y132660D01*
X120181Y132662D01*
X120115Y132668D01*
X120051Y132679D01*
X119987Y132694D01*
X119924Y132713D01*
X119863Y132736D01*
X119804Y132763D01*
X119746Y132793D01*
X119691Y132828D01*
X119637Y132866D01*
X119587Y132908D01*
X119539Y132952D01*
X119494Y133000D01*
X119453Y133051D01*
X119415Y133104D01*
X119380Y133159D01*
X119349Y133217D01*
X119322Y133277D01*
X119299Y133338D01*
X119280Y133401D01*
X119265Y133464D01*
X119255Y133529D01*
X119248Y133594D01*
X119246Y133659D01*
Y139660D01*
X119248Y139725D01*
X119255Y139790D01*
X119265Y139854D01*
X119280Y139918D01*
X119299Y139981D01*
X119322Y140042D01*
X119349Y140102D01*
X119380Y140159D01*
X119415Y140215D01*
X119453Y140268D01*
X119494Y140319D01*
X119539Y140367D01*
X119587Y140411D01*
X119637Y140453D01*
X119691Y140491D01*
X119746Y140526D01*
X119804Y140556D01*
X119863Y140583D01*
X119924Y140606D01*
X119987Y140625D01*
X120051Y140640D01*
X120115Y140651D01*
X120181Y140657D01*
X120246Y140660D01*
X120311Y140657D01*
D02*
G37*
G36*
X116311D02*
X116376Y140651D01*
X116441Y140640D01*
X116504Y140625D01*
X116567Y140606D01*
X116628Y140583D01*
X116688Y140556D01*
X116745Y140526D01*
X116801Y140491D01*
X116854Y140453D01*
X116905Y140411D01*
X116953Y140367D01*
X116997Y140319D01*
X117039Y140268D01*
X117077Y140215D01*
X117112Y140160D01*
X117142Y140102D01*
X117169Y140042D01*
X117192Y139981D01*
X117212Y139918D01*
X117226Y139854D01*
X117237Y139790D01*
X117243Y139725D01*
X117246Y139660D01*
Y133659D01*
X117243Y133594D01*
X117237Y133529D01*
X117226Y133464D01*
X117212Y133401D01*
X117192Y133338D01*
X117169Y133277D01*
X117142Y133217D01*
X117112Y133160D01*
X117077Y133104D01*
X117039Y133051D01*
X116997Y133000D01*
X116953Y132952D01*
X116905Y132908D01*
X116854Y132866D01*
X116801Y132828D01*
X116745Y132793D01*
X116688Y132763D01*
X116628Y132736D01*
X116567Y132713D01*
X116504Y132694D01*
X116441Y132679D01*
X116376Y132668D01*
X116311Y132662D01*
X116245Y132660D01*
X116180Y132662D01*
X116115Y132668D01*
X116051Y132679D01*
X115987Y132694D01*
X115924Y132713D01*
X115863Y132736D01*
X115803Y132763D01*
X115746Y132793D01*
X115690Y132828D01*
X115637Y132866D01*
X115586Y132908D01*
X115538Y132952D01*
X115494Y133000D01*
X115452Y133051D01*
X115414Y133104D01*
X115379Y133159D01*
X115349Y133217D01*
X115322Y133277D01*
X115299Y133338D01*
X115280Y133401D01*
X115265Y133464D01*
X115254Y133529D01*
X115248Y133594D01*
X115246Y133659D01*
Y139660D01*
X115248Y139725D01*
X115254Y139790D01*
X115265Y139854D01*
X115280Y139918D01*
X115299Y139981D01*
X115322Y140042D01*
X115349Y140102D01*
X115379Y140159D01*
X115414Y140215D01*
X115452Y140268D01*
X115494Y140319D01*
X115538Y140367D01*
X115586Y140411D01*
X115637Y140453D01*
X115690Y140491D01*
X115745Y140526D01*
X115803Y140556D01*
X115863Y140583D01*
X115924Y140606D01*
X115987Y140625D01*
X116051Y140640D01*
X116115Y140651D01*
X116180Y140657D01*
X116245Y140660D01*
X116311Y140657D01*
D02*
G37*
G36*
X112310D02*
X112376Y140651D01*
X112440Y140640D01*
X112504Y140625D01*
X112567Y140606D01*
X112628Y140583D01*
X112687Y140556D01*
X112745Y140526D01*
X112801Y140491D01*
X112854Y140453D01*
X112904Y140411D01*
X112952Y140367D01*
X112997Y140319D01*
X113038Y140268D01*
X113076Y140215D01*
X113111Y140160D01*
X113142Y140102D01*
X113169Y140042D01*
X113192Y139981D01*
X113211Y139918D01*
X113226Y139854D01*
X113236Y139790D01*
X113243Y139725D01*
X113245Y139660D01*
Y133659D01*
X113243Y133594D01*
X113236Y133529D01*
X113226Y133464D01*
X113211Y133401D01*
X113192Y133338D01*
X113169Y133277D01*
X113142Y133217D01*
X113111Y133160D01*
X113076Y133104D01*
X113038Y133051D01*
X112997Y133000D01*
X112952Y132952D01*
X112904Y132908D01*
X112854Y132866D01*
X112801Y132828D01*
X112745Y132793D01*
X112687Y132763D01*
X112628Y132736D01*
X112567Y132713D01*
X112504Y132694D01*
X112440Y132679D01*
X112376Y132668D01*
X112310Y132662D01*
X112245Y132660D01*
X112180Y132662D01*
X112114Y132668D01*
X112050Y132679D01*
X111986Y132694D01*
X111924Y132713D01*
X111862Y132736D01*
X111803Y132763D01*
X111745Y132793D01*
X111690Y132828D01*
X111636Y132866D01*
X111586Y132908D01*
X111538Y132952D01*
X111493Y133000D01*
X111452Y133051D01*
X111414Y133104D01*
X111379Y133159D01*
X111348Y133217D01*
X111321Y133277D01*
X111298Y133338D01*
X111279Y133401D01*
X111264Y133464D01*
X111254Y133529D01*
X111247Y133594D01*
X111245Y133659D01*
Y139660D01*
X111247Y139725D01*
X111254Y139790D01*
X111264Y139854D01*
X111279Y139918D01*
X111298Y139981D01*
X111321Y140042D01*
X111348Y140102D01*
X111379Y140159D01*
X111414Y140215D01*
X111452Y140268D01*
X111493Y140319D01*
X111538Y140367D01*
X111586Y140411D01*
X111636Y140453D01*
X111690Y140491D01*
X111745Y140526D01*
X111803Y140556D01*
X111862Y140583D01*
X111924Y140606D01*
X111986Y140625D01*
X112050Y140640D01*
X112114Y140651D01*
X112180Y140657D01*
X112245Y140660D01*
X112310Y140657D01*
D02*
G37*
G36*
X108310D02*
X108375Y140651D01*
X108440Y140640D01*
X108503Y140625D01*
X108566Y140606D01*
X108627Y140583D01*
X108687Y140556D01*
X108744Y140526D01*
X108800Y140491D01*
X108853Y140453D01*
X108904Y140411D01*
X108952Y140367D01*
X108996Y140319D01*
X109038Y140268D01*
X109076Y140215D01*
X109111Y140160D01*
X109141Y140102D01*
X109168Y140042D01*
X109192Y139981D01*
X109211Y139918D01*
X109225Y139854D01*
X109236Y139790D01*
X109242Y139725D01*
X109244Y139660D01*
Y133659D01*
X109242Y133594D01*
X109236Y133529D01*
X109225Y133464D01*
X109211Y133401D01*
X109192Y133338D01*
X109168Y133277D01*
X109141Y133217D01*
X109111Y133160D01*
X109076Y133104D01*
X109038Y133051D01*
X108996Y133000D01*
X108952Y132952D01*
X108904Y132908D01*
X108853Y132866D01*
X108800Y132828D01*
X108744Y132793D01*
X108687Y132763D01*
X108627Y132736D01*
X108566Y132713D01*
X108503Y132694D01*
X108440Y132679D01*
X108375Y132668D01*
X108310Y132662D01*
X108244Y132660D01*
X108179Y132662D01*
X108114Y132668D01*
X108049Y132679D01*
X107986Y132694D01*
X107923Y132713D01*
X107862Y132736D01*
X107802Y132763D01*
X107745Y132793D01*
X107689Y132828D01*
X107636Y132866D01*
X107585Y132908D01*
X107537Y132952D01*
X107493Y133000D01*
X107451Y133051D01*
X107413Y133104D01*
X107378Y133159D01*
X107348Y133217D01*
X107321Y133277D01*
X107298Y133338D01*
X107279Y133401D01*
X107264Y133464D01*
X107253Y133529D01*
X107247Y133594D01*
X107245Y133659D01*
Y139660D01*
X107247Y139725D01*
X107253Y139790D01*
X107264Y139854D01*
X107279Y139918D01*
X107298Y139981D01*
X107321Y140042D01*
X107348Y140102D01*
X107378Y140159D01*
X107413Y140215D01*
X107451Y140268D01*
X107493Y140319D01*
X107537Y140367D01*
X107585Y140411D01*
X107636Y140453D01*
X107689Y140491D01*
X107744Y140526D01*
X107802Y140556D01*
X107862Y140583D01*
X107923Y140606D01*
X107986Y140625D01*
X108049Y140640D01*
X108114Y140651D01*
X108179Y140657D01*
X108244Y140660D01*
X108310Y140657D01*
D02*
G37*
G36*
X104309D02*
X104375Y140651D01*
X104439Y140640D01*
X104503Y140625D01*
X104566Y140606D01*
X104627Y140583D01*
X104686Y140556D01*
X104744Y140526D01*
X104799Y140491D01*
X104853Y140453D01*
X104903Y140411D01*
X104951Y140367D01*
X104996Y140319D01*
X105037Y140268D01*
X105075Y140215D01*
X105110Y140160D01*
X105141Y140102D01*
X105168Y140042D01*
X105191Y139981D01*
X105210Y139918D01*
X105225Y139854D01*
X105235Y139790D01*
X105242Y139725D01*
X105244Y139660D01*
Y133659D01*
X105242Y133594D01*
X105235Y133529D01*
X105225Y133464D01*
X105210Y133401D01*
X105191Y133338D01*
X105168Y133277D01*
X105141Y133217D01*
X105110Y133160D01*
X105075Y133104D01*
X105037Y133051D01*
X104996Y133000D01*
X104951Y132952D01*
X104903Y132908D01*
X104853Y132866D01*
X104799Y132828D01*
X104744Y132793D01*
X104686Y132763D01*
X104627Y132736D01*
X104566Y132713D01*
X104503Y132694D01*
X104439Y132679D01*
X104375Y132668D01*
X104309Y132662D01*
X104244Y132660D01*
X104179Y132662D01*
X104114Y132668D01*
X104049Y132679D01*
X103985Y132694D01*
X103923Y132713D01*
X103861Y132736D01*
X103802Y132763D01*
X103744Y132793D01*
X103688Y132828D01*
X103635Y132866D01*
X103585Y132908D01*
X103537Y132952D01*
X103492Y133000D01*
X103451Y133051D01*
X103413Y133104D01*
X103378Y133159D01*
X103347Y133217D01*
X103320Y133277D01*
X103297Y133338D01*
X103278Y133401D01*
X103263Y133464D01*
X103253Y133529D01*
X103246Y133594D01*
X103244Y133659D01*
Y139660D01*
X103246Y139725D01*
X103253Y139790D01*
X103263Y139854D01*
X103278Y139918D01*
X103297Y139981D01*
X103320Y140042D01*
X103347Y140102D01*
X103378Y140159D01*
X103413Y140215D01*
X103451Y140268D01*
X103492Y140319D01*
X103537Y140367D01*
X103585Y140411D01*
X103635Y140453D01*
X103688Y140491D01*
X103744Y140526D01*
X103802Y140556D01*
X103861Y140583D01*
X103923Y140606D01*
X103985Y140625D01*
X104049Y140640D01*
X104114Y140651D01*
X104179Y140657D01*
X104244Y140660D01*
X104309Y140657D01*
D02*
G37*
G36*
X100311D02*
X100377Y140651D01*
X100441Y140640D01*
X100505Y140625D01*
X100568Y140606D01*
X100629Y140583D01*
X100688Y140556D01*
X100746Y140526D01*
X100802Y140491D01*
X100855Y140453D01*
X100906Y140411D01*
X100953Y140367D01*
X100998Y140319D01*
X101039Y140268D01*
X101077Y140215D01*
X101112Y140160D01*
X101143Y140102D01*
X101170Y140042D01*
X101193Y139981D01*
X101212Y139918D01*
X101227Y139854D01*
X101237Y139790D01*
X101244Y139725D01*
X101246Y139660D01*
Y133659D01*
X101244Y133594D01*
X101237Y133529D01*
X101227Y133464D01*
X101212Y133401D01*
X101193Y133338D01*
X101170Y133277D01*
X101143Y133217D01*
X101112Y133160D01*
X101077Y133104D01*
X101039Y133051D01*
X100998Y133000D01*
X100953Y132952D01*
X100906Y132908D01*
X100855Y132866D01*
X100802Y132828D01*
X100746Y132793D01*
X100688Y132763D01*
X100629Y132736D01*
X100568Y132713D01*
X100505Y132694D01*
X100441Y132679D01*
X100377Y132668D01*
X100311Y132662D01*
X100246Y132660D01*
X100181Y132662D01*
X100115Y132668D01*
X100051Y132679D01*
X99987Y132694D01*
X99924Y132713D01*
X99863Y132736D01*
X99804Y132763D01*
X99746Y132793D01*
X99691Y132828D01*
X99637Y132866D01*
X99587Y132908D01*
X99539Y132952D01*
X99494Y133000D01*
X99453Y133051D01*
X99415Y133104D01*
X99380Y133159D01*
X99349Y133217D01*
X99322Y133277D01*
X99299Y133338D01*
X99280Y133401D01*
X99265Y133464D01*
X99255Y133529D01*
X99248Y133594D01*
X99246Y133659D01*
Y139660D01*
X99248Y139725D01*
X99255Y139790D01*
X99265Y139854D01*
X99280Y139918D01*
X99299Y139981D01*
X99322Y140042D01*
X99349Y140102D01*
X99380Y140159D01*
X99415Y140215D01*
X99453Y140268D01*
X99494Y140319D01*
X99539Y140367D01*
X99587Y140411D01*
X99637Y140453D01*
X99691Y140491D01*
X99746Y140526D01*
X99804Y140556D01*
X99863Y140583D01*
X99924Y140606D01*
X99987Y140625D01*
X100051Y140640D01*
X100115Y140651D01*
X100181Y140657D01*
X100246Y140660D01*
X100311Y140657D01*
D02*
G37*
G36*
X96311D02*
X96376Y140651D01*
X96441Y140640D01*
X96504Y140625D01*
X96567Y140606D01*
X96628Y140583D01*
X96688Y140556D01*
X96746Y140526D01*
X96801Y140491D01*
X96854Y140453D01*
X96905Y140411D01*
X96953Y140367D01*
X96997Y140319D01*
X97039Y140268D01*
X97077Y140215D01*
X97112Y140160D01*
X97142Y140102D01*
X97169Y140042D01*
X97192Y139981D01*
X97212Y139918D01*
X97226Y139854D01*
X97237Y139790D01*
X97243Y139725D01*
X97246Y139660D01*
Y133659D01*
X97243Y133594D01*
X97237Y133529D01*
X97226Y133464D01*
X97212Y133401D01*
X97192Y133338D01*
X97169Y133277D01*
X97142Y133217D01*
X97112Y133160D01*
X97077Y133104D01*
X97039Y133051D01*
X96997Y133000D01*
X96953Y132952D01*
X96905Y132908D01*
X96854Y132866D01*
X96801Y132828D01*
X96746Y132793D01*
X96688Y132763D01*
X96628Y132736D01*
X96567Y132713D01*
X96504Y132694D01*
X96441Y132679D01*
X96376Y132668D01*
X96311Y132662D01*
X96246Y132660D01*
X96180Y132662D01*
X96115Y132668D01*
X96051Y132679D01*
X95987Y132694D01*
X95924Y132713D01*
X95863Y132736D01*
X95803Y132763D01*
X95746Y132793D01*
X95690Y132828D01*
X95637Y132866D01*
X95586Y132908D01*
X95538Y132952D01*
X95494Y133000D01*
X95452Y133051D01*
X95414Y133104D01*
X95379Y133159D01*
X95349Y133217D01*
X95322Y133277D01*
X95299Y133338D01*
X95280Y133401D01*
X95265Y133464D01*
X95254Y133529D01*
X95248Y133594D01*
X95246Y133659D01*
Y139660D01*
X95248Y139725D01*
X95254Y139790D01*
X95265Y139854D01*
X95280Y139918D01*
X95299Y139981D01*
X95322Y140042D01*
X95349Y140102D01*
X95379Y140159D01*
X95414Y140215D01*
X95452Y140268D01*
X95494Y140319D01*
X95538Y140367D01*
X95586Y140411D01*
X95637Y140453D01*
X95690Y140491D01*
X95745Y140526D01*
X95803Y140556D01*
X95863Y140583D01*
X95924Y140606D01*
X95987Y140625D01*
X96051Y140640D01*
X96115Y140651D01*
X96180Y140657D01*
X96246Y140660D01*
X96311Y140657D01*
D02*
G37*
G36*
X92310D02*
X92376Y140651D01*
X92440Y140640D01*
X92504Y140625D01*
X92567Y140606D01*
X92628Y140583D01*
X92687Y140556D01*
X92745Y140526D01*
X92801Y140491D01*
X92854Y140453D01*
X92905Y140411D01*
X92952Y140367D01*
X92997Y140319D01*
X93038Y140268D01*
X93076Y140215D01*
X93111Y140160D01*
X93142Y140102D01*
X93169Y140042D01*
X93192Y139981D01*
X93211Y139918D01*
X93226Y139854D01*
X93236Y139790D01*
X93243Y139725D01*
X93245Y139660D01*
Y133659D01*
X93243Y133594D01*
X93236Y133529D01*
X93226Y133464D01*
X93211Y133401D01*
X93192Y133338D01*
X93169Y133277D01*
X93142Y133217D01*
X93111Y133160D01*
X93076Y133104D01*
X93038Y133051D01*
X92997Y133000D01*
X92952Y132952D01*
X92905Y132908D01*
X92854Y132866D01*
X92801Y132828D01*
X92745Y132793D01*
X92687Y132763D01*
X92628Y132736D01*
X92567Y132713D01*
X92504Y132694D01*
X92440Y132679D01*
X92376Y132668D01*
X92310Y132662D01*
X92245Y132660D01*
X92180Y132662D01*
X92114Y132668D01*
X92050Y132679D01*
X91986Y132694D01*
X91924Y132713D01*
X91862Y132736D01*
X91803Y132763D01*
X91745Y132793D01*
X91690Y132828D01*
X91636Y132866D01*
X91586Y132908D01*
X91538Y132952D01*
X91493Y133000D01*
X91452Y133051D01*
X91414Y133104D01*
X91379Y133159D01*
X91348Y133217D01*
X91321Y133277D01*
X91298Y133338D01*
X91279Y133401D01*
X91264Y133464D01*
X91254Y133529D01*
X91247Y133594D01*
X91245Y133659D01*
Y139660D01*
X91247Y139725D01*
X91254Y139790D01*
X91264Y139854D01*
X91279Y139918D01*
X91298Y139981D01*
X91321Y140042D01*
X91348Y140102D01*
X91379Y140159D01*
X91414Y140215D01*
X91452Y140268D01*
X91493Y140319D01*
X91538Y140367D01*
X91586Y140411D01*
X91636Y140453D01*
X91690Y140491D01*
X91745Y140526D01*
X91803Y140556D01*
X91862Y140583D01*
X91924Y140606D01*
X91986Y140625D01*
X92050Y140640D01*
X92114Y140651D01*
X92180Y140657D01*
X92245Y140660D01*
X92310Y140657D01*
D02*
G37*
G36*
X88310D02*
X88375Y140651D01*
X88440Y140640D01*
X88503Y140625D01*
X88566Y140606D01*
X88627Y140583D01*
X88687Y140556D01*
X88744Y140526D01*
X88800Y140491D01*
X88853Y140453D01*
X88904Y140411D01*
X88952Y140367D01*
X88996Y140319D01*
X89038Y140268D01*
X89076Y140215D01*
X89111Y140160D01*
X89142Y140102D01*
X89168Y140042D01*
X89192Y139981D01*
X89211Y139918D01*
X89225Y139854D01*
X89236Y139790D01*
X89242Y139725D01*
X89245Y139660D01*
Y133659D01*
X89242Y133594D01*
X89236Y133529D01*
X89225Y133464D01*
X89211Y133401D01*
X89192Y133338D01*
X89168Y133277D01*
X89142Y133217D01*
X89111Y133160D01*
X89076Y133104D01*
X89038Y133051D01*
X88996Y133000D01*
X88952Y132952D01*
X88904Y132908D01*
X88853Y132866D01*
X88800Y132828D01*
X88744Y132793D01*
X88687Y132763D01*
X88627Y132736D01*
X88566Y132713D01*
X88503Y132694D01*
X88440Y132679D01*
X88375Y132668D01*
X88310Y132662D01*
X88245Y132660D01*
X88179Y132662D01*
X88114Y132668D01*
X88049Y132679D01*
X87986Y132694D01*
X87923Y132713D01*
X87862Y132736D01*
X87802Y132763D01*
X87745Y132793D01*
X87689Y132828D01*
X87636Y132866D01*
X87585Y132908D01*
X87537Y132952D01*
X87493Y133000D01*
X87451Y133051D01*
X87413Y133104D01*
X87378Y133159D01*
X87348Y133217D01*
X87321Y133277D01*
X87298Y133338D01*
X87279Y133401D01*
X87264Y133464D01*
X87253Y133529D01*
X87247Y133594D01*
X87245Y133659D01*
Y139660D01*
X87247Y139725D01*
X87253Y139790D01*
X87264Y139854D01*
X87279Y139918D01*
X87298Y139981D01*
X87321Y140042D01*
X87348Y140102D01*
X87378Y140159D01*
X87413Y140215D01*
X87451Y140268D01*
X87493Y140319D01*
X87537Y140367D01*
X87585Y140411D01*
X87636Y140453D01*
X87689Y140491D01*
X87745Y140526D01*
X87802Y140556D01*
X87862Y140583D01*
X87923Y140606D01*
X87986Y140625D01*
X88049Y140640D01*
X88114Y140651D01*
X88179Y140657D01*
X88245Y140660D01*
X88310Y140657D01*
D02*
G37*
G36*
X84309D02*
X84375Y140651D01*
X84439Y140640D01*
X84503Y140625D01*
X84566Y140606D01*
X84627Y140583D01*
X84686Y140556D01*
X84744Y140526D01*
X84800Y140491D01*
X84853Y140453D01*
X84903Y140411D01*
X84951Y140367D01*
X84996Y140319D01*
X85037Y140268D01*
X85075Y140215D01*
X85110Y140160D01*
X85141Y140102D01*
X85168Y140042D01*
X85191Y139981D01*
X85210Y139918D01*
X85225Y139854D01*
X85235Y139790D01*
X85242Y139725D01*
X85244Y139660D01*
Y133659D01*
X85242Y133594D01*
X85235Y133529D01*
X85225Y133464D01*
X85210Y133401D01*
X85191Y133338D01*
X85168Y133277D01*
X85141Y133217D01*
X85110Y133160D01*
X85075Y133104D01*
X85037Y133051D01*
X84996Y133000D01*
X84951Y132952D01*
X84903Y132908D01*
X84853Y132866D01*
X84800Y132828D01*
X84744Y132793D01*
X84686Y132763D01*
X84627Y132736D01*
X84566Y132713D01*
X84503Y132694D01*
X84439Y132679D01*
X84375Y132668D01*
X84309Y132662D01*
X84244Y132660D01*
X84179Y132662D01*
X84114Y132668D01*
X84049Y132679D01*
X83985Y132694D01*
X83923Y132713D01*
X83861Y132736D01*
X83802Y132763D01*
X83744Y132793D01*
X83689Y132828D01*
X83635Y132866D01*
X83585Y132908D01*
X83537Y132952D01*
X83492Y133000D01*
X83451Y133051D01*
X83413Y133104D01*
X83378Y133159D01*
X83347Y133217D01*
X83320Y133277D01*
X83297Y133338D01*
X83278Y133401D01*
X83263Y133464D01*
X83253Y133529D01*
X83246Y133594D01*
X83244Y133659D01*
Y139660D01*
X83246Y139725D01*
X83253Y139790D01*
X83263Y139854D01*
X83278Y139918D01*
X83297Y139981D01*
X83320Y140042D01*
X83347Y140102D01*
X83378Y140159D01*
X83413Y140215D01*
X83451Y140268D01*
X83492Y140319D01*
X83537Y140367D01*
X83585Y140411D01*
X83635Y140453D01*
X83689Y140491D01*
X83744Y140526D01*
X83802Y140556D01*
X83861Y140583D01*
X83923Y140606D01*
X83985Y140625D01*
X84049Y140640D01*
X84114Y140651D01*
X84179Y140657D01*
X84244Y140660D01*
X84309Y140657D01*
D02*
G37*
G36*
X130304Y130665D02*
X130369Y130658D01*
X130434Y130647D01*
X130498Y130633D01*
X130560Y130614D01*
X130621Y130591D01*
X130681Y130564D01*
X130738Y130533D01*
X130794Y130498D01*
X130848Y130460D01*
X130898Y130419D01*
X130946Y130374D01*
X130990Y130326D01*
X131032Y130276D01*
X131070Y130222D01*
X131105Y130167D01*
X131136Y130109D01*
X131163Y130050D01*
X131186Y129988D01*
X131205Y129926D01*
X131219Y129862D01*
X131230Y129797D01*
X131237Y129732D01*
X131239Y129667D01*
X131237Y129602D01*
X131230Y129536D01*
X131219Y129472D01*
X131205Y129408D01*
X131186Y129345D01*
X131163Y129284D01*
X131136Y129225D01*
X131105Y129167D01*
X131070Y129111D01*
X131032Y129058D01*
X130990Y129008D01*
X130946Y128960D01*
X130898Y128915D01*
X130848Y128874D01*
X130794Y128835D01*
X130739Y128801D01*
X130681Y128770D01*
X130621Y128743D01*
X130560Y128720D01*
X130498Y128701D01*
X130434Y128686D01*
X130369Y128675D01*
X130304Y128669D01*
X130239Y128667D01*
X124239D01*
X124173Y128669D01*
X124108Y128675D01*
X124044Y128686D01*
X123980Y128701D01*
X123917Y128720D01*
X123856Y128743D01*
X123797Y128770D01*
X123739Y128801D01*
X123683Y128835D01*
X123630Y128874D01*
X123579Y128915D01*
X123532Y128960D01*
X123487Y129008D01*
X123445Y129058D01*
X123407Y129111D01*
X123372Y129167D01*
X123342Y129225D01*
X123315Y129284D01*
X123292Y129345D01*
X123273Y129408D01*
X123258Y129472D01*
X123247Y129536D01*
X123241Y129602D01*
X123239Y129667D01*
X123241Y129732D01*
X123247Y129797D01*
X123258Y129862D01*
X123273Y129926D01*
X123292Y129988D01*
X123315Y130050D01*
X123342Y130109D01*
X123372Y130167D01*
X123407Y130222D01*
X123445Y130276D01*
X123487Y130326D01*
X123532Y130374D01*
X123579Y130419D01*
X123630Y130460D01*
X123683Y130498D01*
X123738Y130533D01*
X123797Y130564D01*
X123856Y130591D01*
X123917Y130614D01*
X123980Y130633D01*
X124044Y130647D01*
X124108Y130658D01*
X124173Y130665D01*
X124239Y130667D01*
X130239D01*
X130304Y130665D01*
D02*
G37*
G36*
X80317D02*
X80382Y130658D01*
X80447Y130647D01*
X80510Y130633D01*
X80573Y130614D01*
X80634Y130591D01*
X80694Y130564D01*
X80751Y130533D01*
X80807Y130498D01*
X80860Y130460D01*
X80911Y130419D01*
X80959Y130374D01*
X81003Y130326D01*
X81045Y130276D01*
X81083Y130222D01*
X81118Y130167D01*
X81148Y130109D01*
X81175Y130050D01*
X81198Y129988D01*
X81217Y129926D01*
X81232Y129862D01*
X81243Y129797D01*
X81249Y129732D01*
X81251Y129667D01*
X81249Y129602D01*
X81243Y129536D01*
X81232Y129472D01*
X81217Y129408D01*
X81198Y129345D01*
X81175Y129284D01*
X81148Y129225D01*
X81118Y129167D01*
X81083Y129111D01*
X81045Y129058D01*
X81003Y129008D01*
X80959Y128960D01*
X80911Y128915D01*
X80860Y128874D01*
X80807Y128835D01*
X80752Y128801D01*
X80694Y128770D01*
X80634Y128743D01*
X80573Y128720D01*
X80510Y128701D01*
X80447Y128686D01*
X80382Y128675D01*
X80317Y128669D01*
X80252Y128667D01*
X74251D01*
X74186Y128669D01*
X74121Y128675D01*
X74056Y128686D01*
X73993Y128701D01*
X73930Y128720D01*
X73869Y128743D01*
X73809Y128770D01*
X73752Y128801D01*
X73696Y128835D01*
X73643Y128874D01*
X73592Y128915D01*
X73544Y128960D01*
X73500Y129008D01*
X73458Y129058D01*
X73420Y129111D01*
X73385Y129167D01*
X73355Y129225D01*
X73328Y129284D01*
X73305Y129345D01*
X73285Y129408D01*
X73271Y129472D01*
X73260Y129536D01*
X73253Y129602D01*
X73252Y129667D01*
X73253Y129732D01*
X73260Y129797D01*
X73271Y129862D01*
X73285Y129926D01*
X73305Y129988D01*
X73328Y130050D01*
X73355Y130109D01*
X73385Y130167D01*
X73420Y130222D01*
X73458Y130276D01*
X73500Y130326D01*
X73544Y130374D01*
X73592Y130419D01*
X73643Y130460D01*
X73696Y130498D01*
X73751Y130533D01*
X73809Y130564D01*
X73869Y130591D01*
X73930Y130614D01*
X73993Y130633D01*
X74056Y130647D01*
X74121Y130658D01*
X74186Y130665D01*
X74251Y130667D01*
X80252D01*
X80317Y130665D01*
D02*
G37*
G36*
X130304Y126664D02*
X130369Y126658D01*
X130434Y126647D01*
X130498Y126632D01*
X130560Y126613D01*
X130621Y126590D01*
X130681Y126563D01*
X130738Y126532D01*
X130794Y126498D01*
X130848Y126460D01*
X130898Y126418D01*
X130946Y126374D01*
X130990Y126326D01*
X131032Y126275D01*
X131070Y126222D01*
X131105Y126166D01*
X131136Y126109D01*
X131163Y126049D01*
X131186Y125988D01*
X131205Y125925D01*
X131219Y125861D01*
X131230Y125797D01*
X131237Y125732D01*
X131239Y125666D01*
X131237Y125601D01*
X131230Y125536D01*
X131219Y125471D01*
X131205Y125407D01*
X131186Y125345D01*
X131163Y125284D01*
X131136Y125224D01*
X131105Y125167D01*
X131070Y125111D01*
X131032Y125057D01*
X130990Y125007D01*
X130946Y124959D01*
X130898Y124915D01*
X130848Y124873D01*
X130794Y124835D01*
X130739Y124800D01*
X130681Y124769D01*
X130621Y124742D01*
X130560Y124719D01*
X130498Y124700D01*
X130434Y124686D01*
X130369Y124675D01*
X130304Y124668D01*
X130239Y124666D01*
X124239D01*
X124173Y124668D01*
X124108Y124675D01*
X124044Y124686D01*
X123980Y124700D01*
X123917Y124719D01*
X123856Y124742D01*
X123797Y124769D01*
X123739Y124800D01*
X123683Y124835D01*
X123630Y124873D01*
X123579Y124915D01*
X123532Y124959D01*
X123487Y125007D01*
X123445Y125057D01*
X123407Y125111D01*
X123372Y125166D01*
X123342Y125224D01*
X123315Y125284D01*
X123292Y125345D01*
X123273Y125407D01*
X123258Y125471D01*
X123247Y125536D01*
X123241Y125601D01*
X123239Y125666D01*
X123241Y125732D01*
X123247Y125797D01*
X123258Y125861D01*
X123273Y125925D01*
X123292Y125988D01*
X123315Y126049D01*
X123342Y126109D01*
X123372Y126166D01*
X123407Y126222D01*
X123445Y126275D01*
X123487Y126326D01*
X123532Y126374D01*
X123579Y126418D01*
X123630Y126460D01*
X123683Y126498D01*
X123738Y126532D01*
X123797Y126563D01*
X123856Y126590D01*
X123917Y126613D01*
X123980Y126632D01*
X124044Y126647D01*
X124108Y126658D01*
X124173Y126664D01*
X124239Y126666D01*
X130239D01*
X130304Y126664D01*
D02*
G37*
G36*
X80317D02*
X80382Y126658D01*
X80447Y126647D01*
X80510Y126632D01*
X80573Y126613D01*
X80634Y126590D01*
X80694Y126563D01*
X80751Y126532D01*
X80807Y126498D01*
X80860Y126460D01*
X80911Y126418D01*
X80959Y126374D01*
X81003Y126326D01*
X81045Y126275D01*
X81083Y126222D01*
X81118Y126166D01*
X81148Y126109D01*
X81175Y126049D01*
X81198Y125988D01*
X81217Y125925D01*
X81232Y125861D01*
X81243Y125797D01*
X81249Y125732D01*
X81251Y125666D01*
X81249Y125601D01*
X81243Y125536D01*
X81232Y125471D01*
X81217Y125407D01*
X81198Y125345D01*
X81175Y125284D01*
X81148Y125224D01*
X81118Y125167D01*
X81083Y125111D01*
X81045Y125057D01*
X81003Y125007D01*
X80959Y124959D01*
X80911Y124915D01*
X80860Y124873D01*
X80807Y124835D01*
X80752Y124800D01*
X80694Y124769D01*
X80634Y124742D01*
X80573Y124719D01*
X80510Y124700D01*
X80447Y124686D01*
X80382Y124675D01*
X80317Y124668D01*
X80252Y124666D01*
X74251D01*
X74186Y124668D01*
X74121Y124675D01*
X74056Y124686D01*
X73993Y124700D01*
X73930Y124719D01*
X73869Y124742D01*
X73809Y124769D01*
X73752Y124800D01*
X73696Y124835D01*
X73643Y124873D01*
X73592Y124915D01*
X73544Y124959D01*
X73500Y125007D01*
X73458Y125057D01*
X73420Y125111D01*
X73385Y125166D01*
X73355Y125224D01*
X73328Y125284D01*
X73305Y125345D01*
X73285Y125407D01*
X73271Y125471D01*
X73260Y125536D01*
X73253Y125601D01*
X73252Y125666D01*
X73253Y125732D01*
X73260Y125797D01*
X73271Y125861D01*
X73285Y125925D01*
X73305Y125988D01*
X73328Y126049D01*
X73355Y126109D01*
X73385Y126166D01*
X73420Y126222D01*
X73458Y126275D01*
X73500Y126326D01*
X73544Y126374D01*
X73592Y126418D01*
X73643Y126460D01*
X73696Y126498D01*
X73751Y126532D01*
X73809Y126563D01*
X73869Y126590D01*
X73930Y126613D01*
X73993Y126632D01*
X74056Y126647D01*
X74121Y126658D01*
X74186Y126664D01*
X74251Y126666D01*
X80252D01*
X80317Y126664D01*
D02*
G37*
G36*
X130304Y122664D02*
X130369Y122657D01*
X130434Y122647D01*
X130498Y122632D01*
X130560Y122613D01*
X130621Y122590D01*
X130681Y122563D01*
X130738Y122532D01*
X130794Y122497D01*
X130848Y122459D01*
X130898Y122418D01*
X130946Y122373D01*
X130990Y122325D01*
X131032Y122275D01*
X131070Y122221D01*
X131105Y122166D01*
X131136Y122108D01*
X131163Y122049D01*
X131186Y121987D01*
X131205Y121925D01*
X131219Y121861D01*
X131230Y121796D01*
X131237Y121731D01*
X131239Y121666D01*
X131237Y121601D01*
X131230Y121535D01*
X131219Y121471D01*
X131205Y121407D01*
X131186Y121344D01*
X131163Y121283D01*
X131136Y121224D01*
X131105Y121166D01*
X131070Y121110D01*
X131032Y121057D01*
X130990Y121006D01*
X130946Y120959D01*
X130898Y120914D01*
X130848Y120873D01*
X130794Y120835D01*
X130739Y120800D01*
X130681Y120769D01*
X130621Y120742D01*
X130560Y120719D01*
X130498Y120700D01*
X130434Y120685D01*
X130369Y120674D01*
X130304Y120668D01*
X130239Y120666D01*
X124239D01*
X124173Y120668D01*
X124108Y120674D01*
X124044Y120685D01*
X123980Y120700D01*
X123917Y120719D01*
X123856Y120742D01*
X123797Y120769D01*
X123739Y120800D01*
X123683Y120835D01*
X123630Y120873D01*
X123579Y120914D01*
X123532Y120959D01*
X123487Y121006D01*
X123445Y121057D01*
X123407Y121110D01*
X123372Y121166D01*
X123342Y121224D01*
X123315Y121283D01*
X123292Y121344D01*
X123273Y121407D01*
X123258Y121471D01*
X123247Y121535D01*
X123241Y121601D01*
X123239Y121666D01*
X123241Y121731D01*
X123247Y121796D01*
X123258Y121861D01*
X123273Y121925D01*
X123292Y121987D01*
X123315Y122049D01*
X123342Y122108D01*
X123372Y122166D01*
X123407Y122221D01*
X123445Y122275D01*
X123487Y122325D01*
X123532Y122373D01*
X123579Y122418D01*
X123630Y122459D01*
X123683Y122497D01*
X123738Y122532D01*
X123797Y122563D01*
X123856Y122590D01*
X123917Y122613D01*
X123980Y122632D01*
X124044Y122647D01*
X124108Y122657D01*
X124173Y122664D01*
X124239Y122666D01*
X130239D01*
X130304Y122664D01*
D02*
G37*
G36*
X80317D02*
X80382Y122657D01*
X80447Y122647D01*
X80510Y122632D01*
X80573Y122613D01*
X80634Y122590D01*
X80694Y122563D01*
X80751Y122532D01*
X80807Y122497D01*
X80860Y122459D01*
X80911Y122418D01*
X80959Y122373D01*
X81003Y122325D01*
X81045Y122275D01*
X81083Y122221D01*
X81118Y122166D01*
X81148Y122108D01*
X81175Y122049D01*
X81198Y121987D01*
X81217Y121925D01*
X81232Y121861D01*
X81243Y121796D01*
X81249Y121731D01*
X81251Y121666D01*
X81249Y121601D01*
X81243Y121535D01*
X81232Y121471D01*
X81217Y121407D01*
X81198Y121344D01*
X81175Y121283D01*
X81148Y121224D01*
X81118Y121166D01*
X81083Y121110D01*
X81045Y121057D01*
X81003Y121006D01*
X80959Y120959D01*
X80911Y120914D01*
X80860Y120873D01*
X80807Y120835D01*
X80752Y120800D01*
X80694Y120769D01*
X80634Y120742D01*
X80573Y120719D01*
X80510Y120700D01*
X80447Y120685D01*
X80382Y120674D01*
X80317Y120668D01*
X80252Y120666D01*
X74251D01*
X74186Y120668D01*
X74121Y120674D01*
X74056Y120685D01*
X73993Y120700D01*
X73930Y120719D01*
X73869Y120742D01*
X73809Y120769D01*
X73752Y120800D01*
X73696Y120835D01*
X73643Y120873D01*
X73592Y120914D01*
X73544Y120959D01*
X73500Y121006D01*
X73458Y121057D01*
X73420Y121110D01*
X73385Y121166D01*
X73355Y121224D01*
X73328Y121283D01*
X73305Y121344D01*
X73285Y121407D01*
X73271Y121471D01*
X73260Y121535D01*
X73253Y121601D01*
X73252Y121666D01*
X73253Y121731D01*
X73260Y121796D01*
X73271Y121861D01*
X73285Y121925D01*
X73305Y121987D01*
X73328Y122049D01*
X73355Y122108D01*
X73385Y122166D01*
X73420Y122221D01*
X73458Y122275D01*
X73500Y122325D01*
X73544Y122373D01*
X73592Y122418D01*
X73643Y122459D01*
X73696Y122497D01*
X73751Y122532D01*
X73809Y122563D01*
X73869Y122590D01*
X73930Y122613D01*
X73993Y122632D01*
X74056Y122647D01*
X74121Y122657D01*
X74186Y122664D01*
X74251Y122666D01*
X80252D01*
X80317Y122664D01*
D02*
G37*
G36*
X130304Y118663D02*
X130369Y118657D01*
X130434Y118646D01*
X130498Y118631D01*
X130560Y118612D01*
X130621Y118589D01*
X130681Y118562D01*
X130738Y118532D01*
X130794Y118497D01*
X130848Y118459D01*
X130898Y118417D01*
X130946Y118372D01*
X130990Y118325D01*
X131032Y118274D01*
X131070Y118221D01*
X131105Y118166D01*
X131136Y118108D01*
X131163Y118048D01*
X131186Y117987D01*
X131205Y117924D01*
X131219Y117860D01*
X131230Y117796D01*
X131237Y117731D01*
X131239Y117665D01*
X131237Y117600D01*
X131230Y117535D01*
X131219Y117470D01*
X131205Y117407D01*
X131186Y117344D01*
X131163Y117283D01*
X131136Y117223D01*
X131105Y117165D01*
X131070Y117110D01*
X131032Y117057D01*
X130990Y117006D01*
X130946Y116958D01*
X130898Y116913D01*
X130848Y116872D01*
X130794Y116834D01*
X130739Y116799D01*
X130681Y116769D01*
X130621Y116742D01*
X130560Y116718D01*
X130498Y116699D01*
X130434Y116685D01*
X130369Y116674D01*
X130304Y116667D01*
X130239Y116665D01*
X124239D01*
X124173Y116667D01*
X124108Y116674D01*
X124044Y116685D01*
X123980Y116699D01*
X123917Y116718D01*
X123856Y116742D01*
X123797Y116769D01*
X123739Y116799D01*
X123683Y116834D01*
X123630Y116872D01*
X123579Y116913D01*
X123532Y116958D01*
X123487Y117006D01*
X123445Y117057D01*
X123407Y117110D01*
X123372Y117165D01*
X123342Y117223D01*
X123315Y117283D01*
X123292Y117344D01*
X123273Y117407D01*
X123258Y117470D01*
X123247Y117535D01*
X123241Y117600D01*
X123239Y117665D01*
X123241Y117731D01*
X123247Y117796D01*
X123258Y117860D01*
X123273Y117924D01*
X123292Y117987D01*
X123315Y118048D01*
X123342Y118108D01*
X123372Y118165D01*
X123407Y118221D01*
X123445Y118274D01*
X123487Y118325D01*
X123532Y118372D01*
X123579Y118417D01*
X123630Y118459D01*
X123683Y118497D01*
X123738Y118532D01*
X123797Y118562D01*
X123856Y118589D01*
X123917Y118612D01*
X123980Y118631D01*
X124044Y118646D01*
X124108Y118657D01*
X124173Y118663D01*
X124239Y118665D01*
X130239D01*
X130304Y118663D01*
D02*
G37*
G36*
X80317D02*
X80382Y118657D01*
X80447Y118646D01*
X80510Y118631D01*
X80573Y118612D01*
X80634Y118589D01*
X80694Y118562D01*
X80751Y118532D01*
X80807Y118497D01*
X80860Y118459D01*
X80911Y118417D01*
X80959Y118372D01*
X81003Y118325D01*
X81045Y118274D01*
X81083Y118221D01*
X81118Y118166D01*
X81148Y118108D01*
X81175Y118048D01*
X81198Y117987D01*
X81217Y117924D01*
X81232Y117860D01*
X81243Y117796D01*
X81249Y117731D01*
X81251Y117665D01*
X81249Y117600D01*
X81243Y117535D01*
X81232Y117470D01*
X81217Y117407D01*
X81198Y117344D01*
X81175Y117283D01*
X81148Y117223D01*
X81118Y117165D01*
X81083Y117110D01*
X81045Y117057D01*
X81003Y117006D01*
X80959Y116958D01*
X80911Y116913D01*
X80860Y116872D01*
X80807Y116834D01*
X80752Y116799D01*
X80694Y116769D01*
X80634Y116742D01*
X80573Y116718D01*
X80510Y116699D01*
X80447Y116685D01*
X80382Y116674D01*
X80317Y116667D01*
X80252Y116665D01*
X74251D01*
X74186Y116667D01*
X74121Y116674D01*
X74056Y116685D01*
X73993Y116699D01*
X73930Y116718D01*
X73869Y116742D01*
X73809Y116769D01*
X73752Y116799D01*
X73696Y116834D01*
X73643Y116872D01*
X73592Y116913D01*
X73544Y116958D01*
X73500Y117006D01*
X73458Y117057D01*
X73420Y117110D01*
X73385Y117165D01*
X73355Y117223D01*
X73328Y117283D01*
X73305Y117344D01*
X73285Y117407D01*
X73271Y117470D01*
X73260Y117535D01*
X73253Y117600D01*
X73252Y117665D01*
X73253Y117731D01*
X73260Y117796D01*
X73271Y117860D01*
X73285Y117924D01*
X73305Y117987D01*
X73328Y118048D01*
X73355Y118108D01*
X73385Y118165D01*
X73420Y118221D01*
X73458Y118274D01*
X73500Y118325D01*
X73544Y118372D01*
X73592Y118417D01*
X73643Y118459D01*
X73696Y118497D01*
X73751Y118532D01*
X73809Y118562D01*
X73869Y118589D01*
X73930Y118612D01*
X73993Y118631D01*
X74056Y118646D01*
X74121Y118657D01*
X74186Y118663D01*
X74251Y118665D01*
X80252D01*
X80317Y118663D01*
D02*
G37*
G36*
X130304Y114663D02*
X130369Y114656D01*
X130434Y114646D01*
X130498Y114631D01*
X130560Y114612D01*
X130621Y114589D01*
X130681Y114562D01*
X130738Y114531D01*
X130794Y114496D01*
X130848Y114458D01*
X130898Y114417D01*
X130946Y114372D01*
X130990Y114324D01*
X131032Y114274D01*
X131070Y114220D01*
X131105Y114165D01*
X131136Y114107D01*
X131163Y114048D01*
X131186Y113986D01*
X131205Y113924D01*
X131219Y113860D01*
X131230Y113795D01*
X131237Y113730D01*
X131239Y113665D01*
X131237Y113600D01*
X131230Y113534D01*
X131219Y113470D01*
X131205Y113406D01*
X131186Y113343D01*
X131163Y113282D01*
X131136Y113223D01*
X131105Y113165D01*
X131070Y113109D01*
X131032Y113056D01*
X130990Y113006D01*
X130946Y112958D01*
X130898Y112913D01*
X130848Y112872D01*
X130794Y112833D01*
X130739Y112799D01*
X130681Y112768D01*
X130621Y112741D01*
X130560Y112718D01*
X130498Y112699D01*
X130434Y112684D01*
X130369Y112674D01*
X130304Y112667D01*
X130239Y112665D01*
X124239D01*
X124173Y112667D01*
X124108Y112674D01*
X124044Y112684D01*
X123980Y112699D01*
X123917Y112718D01*
X123856Y112741D01*
X123797Y112768D01*
X123739Y112799D01*
X123683Y112833D01*
X123630Y112872D01*
X123579Y112913D01*
X123532Y112958D01*
X123487Y113006D01*
X123445Y113056D01*
X123407Y113109D01*
X123372Y113165D01*
X123342Y113223D01*
X123315Y113282D01*
X123292Y113343D01*
X123273Y113406D01*
X123258Y113470D01*
X123247Y113534D01*
X123241Y113600D01*
X123239Y113665D01*
X123241Y113730D01*
X123247Y113795D01*
X123258Y113860D01*
X123273Y113924D01*
X123292Y113986D01*
X123315Y114048D01*
X123342Y114107D01*
X123372Y114165D01*
X123407Y114220D01*
X123445Y114274D01*
X123487Y114324D01*
X123532Y114372D01*
X123579Y114417D01*
X123630Y114458D01*
X123683Y114496D01*
X123738Y114531D01*
X123797Y114562D01*
X123856Y114589D01*
X123917Y114612D01*
X123980Y114631D01*
X124044Y114646D01*
X124108Y114656D01*
X124173Y114663D01*
X124239Y114665D01*
X130239D01*
X130304Y114663D01*
D02*
G37*
G36*
X80317D02*
X80382Y114656D01*
X80447Y114646D01*
X80510Y114631D01*
X80573Y114612D01*
X80634Y114589D01*
X80694Y114562D01*
X80751Y114531D01*
X80807Y114496D01*
X80860Y114458D01*
X80911Y114417D01*
X80959Y114372D01*
X81003Y114324D01*
X81045Y114274D01*
X81083Y114220D01*
X81118Y114165D01*
X81148Y114107D01*
X81175Y114048D01*
X81198Y113986D01*
X81217Y113924D01*
X81232Y113860D01*
X81243Y113795D01*
X81249Y113730D01*
X81251Y113665D01*
X81249Y113600D01*
X81243Y113534D01*
X81232Y113470D01*
X81217Y113406D01*
X81198Y113343D01*
X81175Y113282D01*
X81148Y113223D01*
X81118Y113165D01*
X81083Y113109D01*
X81045Y113056D01*
X81003Y113006D01*
X80959Y112958D01*
X80911Y112913D01*
X80860Y112872D01*
X80807Y112833D01*
X80752Y112799D01*
X80694Y112768D01*
X80634Y112741D01*
X80573Y112718D01*
X80510Y112699D01*
X80447Y112684D01*
X80382Y112674D01*
X80317Y112667D01*
X80252Y112665D01*
X74251D01*
X74186Y112667D01*
X74121Y112674D01*
X74056Y112684D01*
X73993Y112699D01*
X73930Y112718D01*
X73869Y112741D01*
X73809Y112768D01*
X73752Y112799D01*
X73696Y112833D01*
X73643Y112872D01*
X73592Y112913D01*
X73544Y112958D01*
X73500Y113006D01*
X73458Y113056D01*
X73420Y113109D01*
X73385Y113165D01*
X73355Y113223D01*
X73328Y113282D01*
X73305Y113343D01*
X73285Y113406D01*
X73271Y113470D01*
X73260Y113534D01*
X73253Y113600D01*
X73252Y113665D01*
X73253Y113730D01*
X73260Y113795D01*
X73271Y113860D01*
X73285Y113924D01*
X73305Y113986D01*
X73328Y114048D01*
X73355Y114107D01*
X73385Y114165D01*
X73420Y114220D01*
X73458Y114274D01*
X73500Y114324D01*
X73544Y114372D01*
X73592Y114417D01*
X73643Y114458D01*
X73696Y114496D01*
X73751Y114531D01*
X73809Y114562D01*
X73869Y114589D01*
X73930Y114612D01*
X73993Y114631D01*
X74056Y114646D01*
X74121Y114656D01*
X74186Y114663D01*
X74251Y114665D01*
X80252D01*
X80317Y114663D01*
D02*
G37*
G36*
X130304Y110665D02*
X130369Y110658D01*
X130434Y110648D01*
X130498Y110633D01*
X130560Y110614D01*
X130621Y110591D01*
X130681Y110564D01*
X130738Y110533D01*
X130794Y110498D01*
X130848Y110460D01*
X130898Y110419D01*
X130946Y110374D01*
X130990Y110326D01*
X131032Y110276D01*
X131070Y110222D01*
X131105Y110167D01*
X131136Y110109D01*
X131163Y110050D01*
X131186Y109988D01*
X131205Y109926D01*
X131219Y109862D01*
X131230Y109797D01*
X131237Y109732D01*
X131239Y109667D01*
X131237Y109602D01*
X131230Y109536D01*
X131219Y109472D01*
X131205Y109408D01*
X131186Y109345D01*
X131163Y109284D01*
X131136Y109225D01*
X131105Y109167D01*
X131070Y109111D01*
X131032Y109058D01*
X130990Y109008D01*
X130946Y108960D01*
X130898Y108915D01*
X130848Y108874D01*
X130794Y108835D01*
X130739Y108801D01*
X130681Y108770D01*
X130621Y108743D01*
X130560Y108720D01*
X130498Y108701D01*
X130434Y108686D01*
X130369Y108675D01*
X130304Y108669D01*
X130239Y108667D01*
X124239D01*
X124173Y108669D01*
X124108Y108675D01*
X124044Y108686D01*
X123980Y108701D01*
X123917Y108720D01*
X123856Y108743D01*
X123797Y108770D01*
X123739Y108801D01*
X123683Y108835D01*
X123630Y108874D01*
X123579Y108915D01*
X123532Y108960D01*
X123487Y109008D01*
X123445Y109058D01*
X123407Y109111D01*
X123372Y109167D01*
X123342Y109225D01*
X123315Y109284D01*
X123292Y109345D01*
X123273Y109408D01*
X123258Y109472D01*
X123247Y109536D01*
X123241Y109602D01*
X123239Y109667D01*
X123241Y109732D01*
X123247Y109797D01*
X123258Y109862D01*
X123273Y109926D01*
X123292Y109988D01*
X123315Y110050D01*
X123342Y110109D01*
X123372Y110167D01*
X123407Y110222D01*
X123445Y110276D01*
X123487Y110326D01*
X123532Y110374D01*
X123579Y110419D01*
X123630Y110460D01*
X123683Y110498D01*
X123738Y110533D01*
X123797Y110564D01*
X123856Y110591D01*
X123917Y110614D01*
X123980Y110633D01*
X124044Y110648D01*
X124108Y110658D01*
X124173Y110665D01*
X124239Y110667D01*
X130239D01*
X130304Y110665D01*
D02*
G37*
G36*
X80317D02*
X80382Y110658D01*
X80447Y110648D01*
X80510Y110633D01*
X80573Y110614D01*
X80634Y110591D01*
X80694Y110564D01*
X80751Y110533D01*
X80807Y110498D01*
X80860Y110460D01*
X80911Y110419D01*
X80959Y110374D01*
X81003Y110326D01*
X81045Y110276D01*
X81083Y110222D01*
X81118Y110167D01*
X81148Y110109D01*
X81175Y110050D01*
X81198Y109988D01*
X81217Y109926D01*
X81232Y109862D01*
X81243Y109797D01*
X81249Y109732D01*
X81251Y109667D01*
X81249Y109602D01*
X81243Y109536D01*
X81232Y109472D01*
X81217Y109408D01*
X81198Y109345D01*
X81175Y109284D01*
X81148Y109225D01*
X81118Y109167D01*
X81083Y109111D01*
X81045Y109058D01*
X81003Y109008D01*
X80959Y108960D01*
X80911Y108915D01*
X80860Y108874D01*
X80807Y108835D01*
X80752Y108801D01*
X80694Y108770D01*
X80634Y108743D01*
X80573Y108720D01*
X80510Y108701D01*
X80447Y108686D01*
X80382Y108675D01*
X80317Y108669D01*
X80252Y108667D01*
X74251D01*
X74186Y108669D01*
X74121Y108675D01*
X74056Y108686D01*
X73993Y108701D01*
X73930Y108720D01*
X73869Y108743D01*
X73809Y108770D01*
X73752Y108801D01*
X73696Y108835D01*
X73643Y108874D01*
X73592Y108915D01*
X73544Y108960D01*
X73500Y109008D01*
X73458Y109058D01*
X73420Y109111D01*
X73385Y109167D01*
X73355Y109225D01*
X73328Y109284D01*
X73305Y109345D01*
X73285Y109408D01*
X73271Y109472D01*
X73260Y109536D01*
X73253Y109602D01*
X73252Y109667D01*
X73253Y109732D01*
X73260Y109797D01*
X73271Y109862D01*
X73285Y109926D01*
X73305Y109988D01*
X73328Y110050D01*
X73355Y110109D01*
X73385Y110167D01*
X73420Y110222D01*
X73458Y110276D01*
X73500Y110326D01*
X73544Y110374D01*
X73592Y110419D01*
X73643Y110460D01*
X73696Y110498D01*
X73751Y110533D01*
X73809Y110564D01*
X73869Y110591D01*
X73930Y110614D01*
X73993Y110633D01*
X74056Y110648D01*
X74121Y110658D01*
X74186Y110665D01*
X74251Y110667D01*
X80252D01*
X80317Y110665D01*
D02*
G37*
G36*
X167091Y110850D02*
Y106350D01*
X166591Y105850D01*
X161791D01*
X161091Y106350D01*
Y110850D01*
X161791Y111350D01*
X166591D01*
X167091Y110850D01*
D02*
G37*
G36*
X157491D02*
Y106350D01*
X156791Y105850D01*
X151991D01*
X151491Y106350D01*
Y110850D01*
X151991Y111350D01*
X156791D01*
X157491Y110850D01*
D02*
G37*
G36*
X130304Y106664D02*
X130369Y106658D01*
X130434Y106647D01*
X130498Y106632D01*
X130560Y106613D01*
X130621Y106590D01*
X130681Y106563D01*
X130738Y106532D01*
X130794Y106498D01*
X130848Y106460D01*
X130898Y106418D01*
X130946Y106374D01*
X130990Y106326D01*
X131032Y106275D01*
X131070Y106222D01*
X131105Y106166D01*
X131136Y106109D01*
X131163Y106049D01*
X131186Y105988D01*
X131205Y105925D01*
X131219Y105862D01*
X131230Y105797D01*
X131237Y105732D01*
X131239Y105666D01*
X131237Y105601D01*
X131230Y105536D01*
X131219Y105471D01*
X131205Y105408D01*
X131186Y105345D01*
X131163Y105284D01*
X131136Y105224D01*
X131105Y105167D01*
X131070Y105111D01*
X131032Y105057D01*
X130990Y105007D01*
X130946Y104959D01*
X130898Y104915D01*
X130848Y104873D01*
X130794Y104835D01*
X130739Y104800D01*
X130681Y104769D01*
X130621Y104743D01*
X130560Y104719D01*
X130498Y104700D01*
X130434Y104686D01*
X130369Y104675D01*
X130304Y104668D01*
X130239Y104666D01*
X124239D01*
X124173Y104668D01*
X124108Y104675D01*
X124044Y104686D01*
X123980Y104700D01*
X123917Y104719D01*
X123856Y104743D01*
X123797Y104769D01*
X123739Y104800D01*
X123683Y104835D01*
X123630Y104873D01*
X123579Y104915D01*
X123532Y104959D01*
X123487Y105007D01*
X123445Y105057D01*
X123407Y105111D01*
X123372Y105166D01*
X123342Y105224D01*
X123315Y105284D01*
X123292Y105345D01*
X123273Y105408D01*
X123258Y105471D01*
X123247Y105536D01*
X123241Y105601D01*
X123239Y105666D01*
X123241Y105732D01*
X123247Y105797D01*
X123258Y105862D01*
X123273Y105925D01*
X123292Y105988D01*
X123315Y106049D01*
X123342Y106109D01*
X123372Y106166D01*
X123407Y106222D01*
X123445Y106275D01*
X123487Y106326D01*
X123532Y106374D01*
X123579Y106418D01*
X123630Y106460D01*
X123683Y106498D01*
X123738Y106532D01*
X123797Y106563D01*
X123856Y106590D01*
X123917Y106613D01*
X123980Y106632D01*
X124044Y106647D01*
X124108Y106658D01*
X124173Y106664D01*
X124239Y106666D01*
X130239D01*
X130304Y106664D01*
D02*
G37*
G36*
X80317D02*
X80382Y106658D01*
X80447Y106647D01*
X80510Y106632D01*
X80573Y106613D01*
X80634Y106590D01*
X80694Y106563D01*
X80751Y106532D01*
X80807Y106498D01*
X80860Y106460D01*
X80911Y106418D01*
X80959Y106374D01*
X81003Y106326D01*
X81045Y106275D01*
X81083Y106222D01*
X81118Y106166D01*
X81148Y106109D01*
X81175Y106049D01*
X81198Y105988D01*
X81217Y105925D01*
X81232Y105862D01*
X81243Y105797D01*
X81249Y105732D01*
X81251Y105666D01*
X81249Y105601D01*
X81243Y105536D01*
X81232Y105471D01*
X81217Y105408D01*
X81198Y105345D01*
X81175Y105284D01*
X81148Y105224D01*
X81118Y105167D01*
X81083Y105111D01*
X81045Y105057D01*
X81003Y105007D01*
X80959Y104959D01*
X80911Y104915D01*
X80860Y104873D01*
X80807Y104835D01*
X80752Y104800D01*
X80694Y104769D01*
X80634Y104743D01*
X80573Y104719D01*
X80510Y104700D01*
X80447Y104686D01*
X80382Y104675D01*
X80317Y104668D01*
X80252Y104666D01*
X74251D01*
X74186Y104668D01*
X74121Y104675D01*
X74056Y104686D01*
X73993Y104700D01*
X73930Y104719D01*
X73869Y104743D01*
X73809Y104769D01*
X73752Y104800D01*
X73696Y104835D01*
X73643Y104873D01*
X73592Y104915D01*
X73544Y104959D01*
X73500Y105007D01*
X73458Y105057D01*
X73420Y105111D01*
X73385Y105166D01*
X73355Y105224D01*
X73328Y105284D01*
X73305Y105345D01*
X73285Y105408D01*
X73271Y105471D01*
X73260Y105536D01*
X73253Y105601D01*
X73252Y105666D01*
X73253Y105732D01*
X73260Y105797D01*
X73271Y105862D01*
X73285Y105925D01*
X73305Y105988D01*
X73328Y106049D01*
X73355Y106109D01*
X73385Y106166D01*
X73420Y106222D01*
X73458Y106275D01*
X73500Y106326D01*
X73544Y106374D01*
X73592Y106418D01*
X73643Y106460D01*
X73696Y106498D01*
X73751Y106532D01*
X73809Y106563D01*
X73869Y106590D01*
X73930Y106613D01*
X73993Y106632D01*
X74056Y106647D01*
X74121Y106658D01*
X74186Y106664D01*
X74251Y106666D01*
X80252D01*
X80317Y106664D01*
D02*
G37*
G36*
X130304Y102664D02*
X130369Y102657D01*
X130434Y102647D01*
X130498Y102632D01*
X130560Y102613D01*
X130621Y102590D01*
X130681Y102563D01*
X130738Y102532D01*
X130794Y102497D01*
X130848Y102459D01*
X130898Y102418D01*
X130946Y102373D01*
X130990Y102325D01*
X131032Y102275D01*
X131070Y102221D01*
X131105Y102166D01*
X131136Y102108D01*
X131163Y102049D01*
X131186Y101987D01*
X131205Y101925D01*
X131219Y101861D01*
X131230Y101796D01*
X131237Y101731D01*
X131239Y101666D01*
X131237Y101601D01*
X131230Y101535D01*
X131219Y101471D01*
X131205Y101407D01*
X131186Y101344D01*
X131163Y101283D01*
X131136Y101224D01*
X131105Y101166D01*
X131070Y101110D01*
X131032Y101057D01*
X130990Y101006D01*
X130946Y100959D01*
X130898Y100914D01*
X130848Y100873D01*
X130794Y100835D01*
X130739Y100800D01*
X130681Y100769D01*
X130621Y100742D01*
X130560Y100719D01*
X130498Y100700D01*
X130434Y100685D01*
X130369Y100674D01*
X130304Y100668D01*
X130239Y100666D01*
X124239D01*
X124173Y100668D01*
X124108Y100674D01*
X124044Y100685D01*
X123980Y100700D01*
X123917Y100719D01*
X123856Y100742D01*
X123797Y100769D01*
X123739Y100800D01*
X123683Y100835D01*
X123630Y100873D01*
X123579Y100914D01*
X123532Y100959D01*
X123487Y101006D01*
X123445Y101057D01*
X123407Y101110D01*
X123372Y101166D01*
X123342Y101224D01*
X123315Y101283D01*
X123292Y101344D01*
X123273Y101407D01*
X123258Y101471D01*
X123247Y101535D01*
X123241Y101601D01*
X123239Y101666D01*
X123241Y101731D01*
X123247Y101796D01*
X123258Y101861D01*
X123273Y101925D01*
X123292Y101987D01*
X123315Y102049D01*
X123342Y102108D01*
X123372Y102166D01*
X123407Y102221D01*
X123445Y102275D01*
X123487Y102325D01*
X123532Y102373D01*
X123579Y102418D01*
X123630Y102459D01*
X123683Y102497D01*
X123738Y102532D01*
X123797Y102563D01*
X123856Y102590D01*
X123917Y102613D01*
X123980Y102632D01*
X124044Y102647D01*
X124108Y102657D01*
X124173Y102664D01*
X124239Y102666D01*
X130239D01*
X130304Y102664D01*
D02*
G37*
G36*
X80317D02*
X80382Y102657D01*
X80447Y102647D01*
X80510Y102632D01*
X80573Y102613D01*
X80634Y102590D01*
X80694Y102563D01*
X80751Y102532D01*
X80807Y102497D01*
X80860Y102459D01*
X80911Y102418D01*
X80959Y102373D01*
X81003Y102325D01*
X81045Y102275D01*
X81083Y102221D01*
X81118Y102166D01*
X81148Y102108D01*
X81175Y102049D01*
X81198Y101987D01*
X81217Y101925D01*
X81232Y101861D01*
X81243Y101796D01*
X81249Y101731D01*
X81251Y101666D01*
X81249Y101601D01*
X81243Y101535D01*
X81232Y101471D01*
X81217Y101407D01*
X81198Y101344D01*
X81175Y101283D01*
X81148Y101224D01*
X81118Y101166D01*
X81083Y101110D01*
X81045Y101057D01*
X81003Y101006D01*
X80959Y100959D01*
X80911Y100914D01*
X80860Y100873D01*
X80807Y100835D01*
X80752Y100800D01*
X80694Y100769D01*
X80634Y100742D01*
X80573Y100719D01*
X80510Y100700D01*
X80447Y100685D01*
X80382Y100674D01*
X80317Y100668D01*
X80252Y100666D01*
X74251D01*
X74186Y100668D01*
X74121Y100674D01*
X74056Y100685D01*
X73993Y100700D01*
X73930Y100719D01*
X73869Y100742D01*
X73809Y100769D01*
X73752Y100800D01*
X73696Y100835D01*
X73643Y100873D01*
X73592Y100914D01*
X73544Y100959D01*
X73500Y101006D01*
X73458Y101057D01*
X73420Y101110D01*
X73385Y101166D01*
X73355Y101224D01*
X73328Y101283D01*
X73305Y101344D01*
X73285Y101407D01*
X73271Y101471D01*
X73260Y101535D01*
X73253Y101601D01*
X73252Y101666D01*
X73253Y101731D01*
X73260Y101796D01*
X73271Y101861D01*
X73285Y101925D01*
X73305Y101987D01*
X73328Y102049D01*
X73355Y102108D01*
X73385Y102166D01*
X73420Y102221D01*
X73458Y102275D01*
X73500Y102325D01*
X73544Y102373D01*
X73592Y102418D01*
X73643Y102459D01*
X73696Y102497D01*
X73751Y102532D01*
X73809Y102563D01*
X73869Y102590D01*
X73930Y102613D01*
X73993Y102632D01*
X74056Y102647D01*
X74121Y102657D01*
X74186Y102664D01*
X74251Y102666D01*
X80252D01*
X80317Y102664D01*
D02*
G37*
G36*
X115845Y98065D02*
X88645D01*
Y125265D01*
X115845D01*
Y98065D01*
D02*
G37*
G36*
X130304Y98663D02*
X130369Y98657D01*
X130434Y98646D01*
X130498Y98631D01*
X130560Y98612D01*
X130621Y98589D01*
X130681Y98562D01*
X130738Y98532D01*
X130794Y98497D01*
X130848Y98459D01*
X130898Y98417D01*
X130946Y98372D01*
X130990Y98325D01*
X131032Y98274D01*
X131070Y98221D01*
X131105Y98166D01*
X131136Y98108D01*
X131163Y98048D01*
X131186Y97987D01*
X131205Y97924D01*
X131219Y97860D01*
X131230Y97796D01*
X131237Y97731D01*
X131239Y97665D01*
X131237Y97600D01*
X131230Y97535D01*
X131219Y97470D01*
X131205Y97407D01*
X131186Y97344D01*
X131163Y97283D01*
X131136Y97223D01*
X131105Y97165D01*
X131070Y97110D01*
X131032Y97057D01*
X130990Y97006D01*
X130946Y96958D01*
X130898Y96913D01*
X130848Y96872D01*
X130794Y96834D01*
X130739Y96799D01*
X130681Y96769D01*
X130621Y96742D01*
X130560Y96719D01*
X130498Y96699D01*
X130434Y96685D01*
X130369Y96674D01*
X130304Y96667D01*
X130239Y96665D01*
X124239D01*
X124173Y96667D01*
X124108Y96674D01*
X124044Y96685D01*
X123980Y96699D01*
X123917Y96719D01*
X123856Y96742D01*
X123797Y96769D01*
X123739Y96799D01*
X123683Y96834D01*
X123630Y96872D01*
X123579Y96913D01*
X123532Y96958D01*
X123487Y97006D01*
X123445Y97057D01*
X123407Y97110D01*
X123372Y97165D01*
X123342Y97223D01*
X123315Y97283D01*
X123292Y97344D01*
X123273Y97407D01*
X123258Y97470D01*
X123247Y97535D01*
X123241Y97600D01*
X123239Y97665D01*
X123241Y97731D01*
X123247Y97796D01*
X123258Y97860D01*
X123273Y97924D01*
X123292Y97987D01*
X123315Y98048D01*
X123342Y98108D01*
X123372Y98165D01*
X123407Y98221D01*
X123445Y98274D01*
X123487Y98325D01*
X123532Y98372D01*
X123579Y98417D01*
X123630Y98459D01*
X123683Y98497D01*
X123738Y98532D01*
X123797Y98562D01*
X123856Y98589D01*
X123917Y98612D01*
X123980Y98631D01*
X124044Y98646D01*
X124108Y98657D01*
X124173Y98663D01*
X124239Y98665D01*
X130239D01*
X130304Y98663D01*
D02*
G37*
G36*
X80317D02*
X80382Y98657D01*
X80447Y98646D01*
X80510Y98631D01*
X80573Y98612D01*
X80634Y98589D01*
X80694Y98562D01*
X80751Y98532D01*
X80807Y98497D01*
X80860Y98459D01*
X80911Y98417D01*
X80959Y98372D01*
X81003Y98325D01*
X81045Y98274D01*
X81083Y98221D01*
X81118Y98166D01*
X81148Y98108D01*
X81175Y98048D01*
X81198Y97987D01*
X81217Y97924D01*
X81232Y97860D01*
X81243Y97796D01*
X81249Y97731D01*
X81251Y97665D01*
X81249Y97600D01*
X81243Y97535D01*
X81232Y97470D01*
X81217Y97407D01*
X81198Y97344D01*
X81175Y97283D01*
X81148Y97223D01*
X81118Y97165D01*
X81083Y97110D01*
X81045Y97057D01*
X81003Y97006D01*
X80959Y96958D01*
X80911Y96913D01*
X80860Y96872D01*
X80807Y96834D01*
X80752Y96799D01*
X80694Y96769D01*
X80634Y96742D01*
X80573Y96719D01*
X80510Y96699D01*
X80447Y96685D01*
X80382Y96674D01*
X80317Y96667D01*
X80252Y96665D01*
X74251D01*
X74186Y96667D01*
X74121Y96674D01*
X74056Y96685D01*
X73993Y96699D01*
X73930Y96719D01*
X73869Y96742D01*
X73809Y96769D01*
X73752Y96799D01*
X73696Y96834D01*
X73643Y96872D01*
X73592Y96913D01*
X73544Y96958D01*
X73500Y97006D01*
X73458Y97057D01*
X73420Y97110D01*
X73385Y97165D01*
X73355Y97223D01*
X73328Y97283D01*
X73305Y97344D01*
X73285Y97407D01*
X73271Y97470D01*
X73260Y97535D01*
X73253Y97600D01*
X73252Y97665D01*
X73253Y97731D01*
X73260Y97796D01*
X73271Y97860D01*
X73285Y97924D01*
X73305Y97987D01*
X73328Y98048D01*
X73355Y98108D01*
X73385Y98165D01*
X73420Y98221D01*
X73458Y98274D01*
X73500Y98325D01*
X73544Y98372D01*
X73592Y98417D01*
X73643Y98459D01*
X73696Y98497D01*
X73751Y98532D01*
X73809Y98562D01*
X73869Y98589D01*
X73930Y98612D01*
X73993Y98631D01*
X74056Y98646D01*
X74121Y98657D01*
X74186Y98663D01*
X74251Y98665D01*
X80252D01*
X80317Y98663D01*
D02*
G37*
G36*
X130304Y94663D02*
X130369Y94656D01*
X130434Y94646D01*
X130498Y94631D01*
X130560Y94612D01*
X130621Y94589D01*
X130681Y94562D01*
X130738Y94531D01*
X130794Y94496D01*
X130848Y94458D01*
X130898Y94417D01*
X130946Y94372D01*
X130990Y94324D01*
X131032Y94274D01*
X131070Y94220D01*
X131105Y94165D01*
X131136Y94107D01*
X131163Y94048D01*
X131186Y93987D01*
X131205Y93924D01*
X131219Y93860D01*
X131230Y93795D01*
X131237Y93730D01*
X131239Y93665D01*
X131237Y93600D01*
X131230Y93534D01*
X131219Y93470D01*
X131205Y93406D01*
X131186Y93343D01*
X131163Y93282D01*
X131136Y93223D01*
X131105Y93165D01*
X131070Y93109D01*
X131032Y93056D01*
X130990Y93006D01*
X130946Y92958D01*
X130898Y92913D01*
X130848Y92872D01*
X130794Y92833D01*
X130739Y92799D01*
X130681Y92768D01*
X130621Y92741D01*
X130560Y92718D01*
X130498Y92699D01*
X130434Y92684D01*
X130369Y92674D01*
X130304Y92667D01*
X130239Y92665D01*
X124239D01*
X124173Y92667D01*
X124108Y92674D01*
X124044Y92684D01*
X123980Y92699D01*
X123917Y92718D01*
X123856Y92741D01*
X123797Y92768D01*
X123739Y92799D01*
X123683Y92833D01*
X123630Y92872D01*
X123579Y92913D01*
X123532Y92958D01*
X123487Y93006D01*
X123445Y93056D01*
X123407Y93109D01*
X123372Y93165D01*
X123342Y93223D01*
X123315Y93282D01*
X123292Y93343D01*
X123273Y93406D01*
X123258Y93470D01*
X123247Y93534D01*
X123241Y93600D01*
X123239Y93665D01*
X123241Y93730D01*
X123247Y93795D01*
X123258Y93860D01*
X123273Y93924D01*
X123292Y93987D01*
X123315Y94048D01*
X123342Y94107D01*
X123372Y94165D01*
X123407Y94220D01*
X123445Y94274D01*
X123487Y94324D01*
X123532Y94372D01*
X123579Y94417D01*
X123630Y94458D01*
X123683Y94496D01*
X123738Y94531D01*
X123797Y94562D01*
X123856Y94589D01*
X123917Y94612D01*
X123980Y94631D01*
X124044Y94646D01*
X124108Y94656D01*
X124173Y94663D01*
X124239Y94665D01*
X130239D01*
X130304Y94663D01*
D02*
G37*
G36*
X80317D02*
X80382Y94656D01*
X80447Y94646D01*
X80510Y94631D01*
X80573Y94612D01*
X80634Y94589D01*
X80694Y94562D01*
X80751Y94531D01*
X80807Y94496D01*
X80860Y94458D01*
X80911Y94417D01*
X80959Y94372D01*
X81003Y94324D01*
X81045Y94274D01*
X81083Y94220D01*
X81118Y94165D01*
X81148Y94107D01*
X81175Y94048D01*
X81198Y93987D01*
X81217Y93924D01*
X81232Y93860D01*
X81243Y93795D01*
X81249Y93730D01*
X81251Y93665D01*
X81249Y93600D01*
X81243Y93534D01*
X81232Y93470D01*
X81217Y93406D01*
X81198Y93343D01*
X81175Y93282D01*
X81148Y93223D01*
X81118Y93165D01*
X81083Y93109D01*
X81045Y93056D01*
X81003Y93006D01*
X80959Y92958D01*
X80911Y92913D01*
X80860Y92872D01*
X80807Y92833D01*
X80752Y92799D01*
X80694Y92768D01*
X80634Y92741D01*
X80573Y92718D01*
X80510Y92699D01*
X80447Y92684D01*
X80382Y92674D01*
X80317Y92667D01*
X80252Y92665D01*
X74251D01*
X74186Y92667D01*
X74121Y92674D01*
X74056Y92684D01*
X73993Y92699D01*
X73930Y92718D01*
X73869Y92741D01*
X73809Y92768D01*
X73752Y92799D01*
X73696Y92833D01*
X73643Y92872D01*
X73592Y92913D01*
X73544Y92958D01*
X73500Y93006D01*
X73458Y93056D01*
X73420Y93109D01*
X73385Y93165D01*
X73355Y93223D01*
X73328Y93282D01*
X73305Y93343D01*
X73285Y93406D01*
X73271Y93470D01*
X73260Y93534D01*
X73253Y93600D01*
X73252Y93665D01*
X73253Y93730D01*
X73260Y93795D01*
X73271Y93860D01*
X73285Y93924D01*
X73305Y93987D01*
X73328Y94048D01*
X73355Y94107D01*
X73385Y94165D01*
X73420Y94220D01*
X73458Y94274D01*
X73500Y94324D01*
X73544Y94372D01*
X73592Y94417D01*
X73643Y94458D01*
X73696Y94496D01*
X73751Y94531D01*
X73809Y94562D01*
X73869Y94589D01*
X73930Y94612D01*
X73993Y94631D01*
X74056Y94646D01*
X74121Y94656D01*
X74186Y94663D01*
X74251Y94665D01*
X80252D01*
X80317Y94663D01*
D02*
G37*
G36*
X167091Y96498D02*
Y91998D01*
X166591Y91498D01*
X161791D01*
X161091Y91998D01*
Y96498D01*
X161791Y96998D01*
X166591D01*
X167091Y96498D01*
D02*
G37*
G36*
X157491D02*
Y91998D01*
X156791Y91498D01*
X151991D01*
X151491Y91998D01*
Y96498D01*
X151991Y96998D01*
X156791D01*
X157491Y96498D01*
D02*
G37*
G36*
X120311Y90670D02*
X120377Y90664D01*
X120441Y90653D01*
X120505Y90638D01*
X120568Y90619D01*
X120629Y90596D01*
X120688Y90569D01*
X120746Y90538D01*
X120801Y90504D01*
X120855Y90465D01*
X120905Y90424D01*
X120953Y90379D01*
X120998Y90332D01*
X121039Y90281D01*
X121077Y90228D01*
X121112Y90172D01*
X121143Y90114D01*
X121170Y90055D01*
X121193Y89994D01*
X121212Y89931D01*
X121227Y89867D01*
X121237Y89803D01*
X121244Y89738D01*
X121246Y89672D01*
Y83672D01*
X121244Y83607D01*
X121237Y83542D01*
X121227Y83477D01*
X121212Y83413D01*
X121193Y83351D01*
X121170Y83289D01*
X121143Y83230D01*
X121112Y83172D01*
X121077Y83117D01*
X121039Y83063D01*
X120998Y83013D01*
X120953Y82965D01*
X120905Y82920D01*
X120855Y82879D01*
X120801Y82841D01*
X120746Y82806D01*
X120688Y82775D01*
X120629Y82748D01*
X120568Y82725D01*
X120505Y82706D01*
X120441Y82692D01*
X120377Y82681D01*
X120311Y82674D01*
X120246Y82672D01*
X120181Y82674D01*
X120115Y82681D01*
X120051Y82692D01*
X119987Y82706D01*
X119924Y82725D01*
X119863Y82748D01*
X119804Y82775D01*
X119746Y82806D01*
X119691Y82841D01*
X119637Y82879D01*
X119587Y82920D01*
X119539Y82965D01*
X119494Y83013D01*
X119453Y83063D01*
X119415Y83117D01*
X119380Y83172D01*
X119349Y83230D01*
X119322Y83289D01*
X119299Y83351D01*
X119280Y83413D01*
X119265Y83477D01*
X119255Y83542D01*
X119248Y83607D01*
X119246Y83672D01*
Y89672D01*
X119248Y89738D01*
X119255Y89803D01*
X119265Y89867D01*
X119280Y89931D01*
X119299Y89994D01*
X119322Y90055D01*
X119349Y90114D01*
X119380Y90172D01*
X119415Y90228D01*
X119453Y90281D01*
X119494Y90332D01*
X119539Y90379D01*
X119587Y90424D01*
X119637Y90465D01*
X119691Y90504D01*
X119746Y90538D01*
X119804Y90569D01*
X119863Y90596D01*
X119924Y90619D01*
X119987Y90638D01*
X120051Y90653D01*
X120115Y90664D01*
X120181Y90670D01*
X120246Y90672D01*
X120311Y90670D01*
D02*
G37*
G36*
X116311D02*
X116376Y90664D01*
X116441Y90653D01*
X116504Y90638D01*
X116567Y90619D01*
X116628Y90596D01*
X116688Y90569D01*
X116745Y90538D01*
X116801Y90504D01*
X116854Y90465D01*
X116905Y90424D01*
X116953Y90379D01*
X116997Y90332D01*
X117039Y90281D01*
X117077Y90228D01*
X117112Y90172D01*
X117142Y90114D01*
X117169Y90055D01*
X117192Y89994D01*
X117212Y89931D01*
X117226Y89867D01*
X117237Y89803D01*
X117243Y89738D01*
X117246Y89672D01*
Y83672D01*
X117243Y83607D01*
X117237Y83542D01*
X117226Y83477D01*
X117212Y83413D01*
X117192Y83351D01*
X117169Y83289D01*
X117142Y83230D01*
X117112Y83172D01*
X117077Y83117D01*
X117039Y83063D01*
X116997Y83013D01*
X116953Y82965D01*
X116905Y82920D01*
X116854Y82879D01*
X116801Y82841D01*
X116745Y82806D01*
X116688Y82775D01*
X116628Y82748D01*
X116567Y82725D01*
X116504Y82706D01*
X116441Y82692D01*
X116376Y82681D01*
X116311Y82674D01*
X116245Y82672D01*
X116180Y82674D01*
X116115Y82681D01*
X116051Y82692D01*
X115987Y82706D01*
X115924Y82725D01*
X115863Y82748D01*
X115803Y82775D01*
X115746Y82806D01*
X115690Y82841D01*
X115637Y82879D01*
X115586Y82920D01*
X115538Y82965D01*
X115494Y83013D01*
X115452Y83063D01*
X115414Y83117D01*
X115379Y83172D01*
X115349Y83230D01*
X115322Y83289D01*
X115299Y83351D01*
X115280Y83413D01*
X115265Y83477D01*
X115254Y83542D01*
X115248Y83607D01*
X115246Y83672D01*
Y89672D01*
X115248Y89738D01*
X115254Y89803D01*
X115265Y89867D01*
X115280Y89931D01*
X115299Y89994D01*
X115322Y90055D01*
X115349Y90114D01*
X115379Y90172D01*
X115414Y90228D01*
X115452Y90281D01*
X115494Y90332D01*
X115538Y90379D01*
X115586Y90424D01*
X115637Y90465D01*
X115690Y90504D01*
X115745Y90538D01*
X115803Y90569D01*
X115863Y90596D01*
X115924Y90619D01*
X115987Y90638D01*
X116051Y90653D01*
X116115Y90664D01*
X116180Y90670D01*
X116245Y90672D01*
X116311Y90670D01*
D02*
G37*
G36*
X112310D02*
X112376Y90664D01*
X112440Y90653D01*
X112504Y90638D01*
X112567Y90619D01*
X112628Y90596D01*
X112687Y90569D01*
X112745Y90538D01*
X112801Y90504D01*
X112854Y90465D01*
X112904Y90424D01*
X112952Y90379D01*
X112997Y90332D01*
X113038Y90281D01*
X113076Y90228D01*
X113111Y90172D01*
X113142Y90114D01*
X113169Y90055D01*
X113192Y89994D01*
X113211Y89931D01*
X113226Y89867D01*
X113236Y89803D01*
X113243Y89738D01*
X113245Y89672D01*
Y83672D01*
X113243Y83607D01*
X113236Y83542D01*
X113226Y83477D01*
X113211Y83413D01*
X113192Y83351D01*
X113169Y83289D01*
X113142Y83230D01*
X113111Y83172D01*
X113076Y83117D01*
X113038Y83063D01*
X112997Y83013D01*
X112952Y82965D01*
X112904Y82920D01*
X112854Y82879D01*
X112801Y82841D01*
X112745Y82806D01*
X112687Y82775D01*
X112628Y82748D01*
X112567Y82725D01*
X112504Y82706D01*
X112440Y82692D01*
X112376Y82681D01*
X112310Y82674D01*
X112245Y82672D01*
X112180Y82674D01*
X112114Y82681D01*
X112050Y82692D01*
X111986Y82706D01*
X111924Y82725D01*
X111862Y82748D01*
X111803Y82775D01*
X111745Y82806D01*
X111690Y82841D01*
X111636Y82879D01*
X111586Y82920D01*
X111538Y82965D01*
X111493Y83013D01*
X111452Y83063D01*
X111414Y83117D01*
X111379Y83172D01*
X111348Y83230D01*
X111321Y83289D01*
X111298Y83351D01*
X111279Y83413D01*
X111264Y83477D01*
X111254Y83542D01*
X111247Y83607D01*
X111245Y83672D01*
Y89672D01*
X111247Y89738D01*
X111254Y89803D01*
X111264Y89867D01*
X111279Y89931D01*
X111298Y89994D01*
X111321Y90055D01*
X111348Y90114D01*
X111379Y90172D01*
X111414Y90228D01*
X111452Y90281D01*
X111493Y90332D01*
X111538Y90379D01*
X111586Y90424D01*
X111636Y90465D01*
X111690Y90504D01*
X111745Y90538D01*
X111803Y90569D01*
X111862Y90596D01*
X111924Y90619D01*
X111986Y90638D01*
X112050Y90653D01*
X112114Y90664D01*
X112180Y90670D01*
X112245Y90672D01*
X112310Y90670D01*
D02*
G37*
G36*
X108310D02*
X108375Y90664D01*
X108440Y90653D01*
X108503Y90638D01*
X108566Y90619D01*
X108627Y90596D01*
X108687Y90569D01*
X108744Y90538D01*
X108800Y90504D01*
X108853Y90465D01*
X108904Y90424D01*
X108952Y90379D01*
X108996Y90332D01*
X109038Y90281D01*
X109076Y90228D01*
X109111Y90172D01*
X109141Y90114D01*
X109168Y90055D01*
X109192Y89994D01*
X109211Y89931D01*
X109225Y89867D01*
X109236Y89803D01*
X109242Y89738D01*
X109244Y89672D01*
Y83672D01*
X109242Y83607D01*
X109236Y83542D01*
X109225Y83477D01*
X109211Y83413D01*
X109192Y83351D01*
X109168Y83289D01*
X109141Y83230D01*
X109111Y83172D01*
X109076Y83117D01*
X109038Y83063D01*
X108996Y83013D01*
X108952Y82965D01*
X108904Y82920D01*
X108853Y82879D01*
X108800Y82841D01*
X108744Y82806D01*
X108687Y82775D01*
X108627Y82748D01*
X108566Y82725D01*
X108503Y82706D01*
X108440Y82692D01*
X108375Y82681D01*
X108310Y82674D01*
X108244Y82672D01*
X108179Y82674D01*
X108114Y82681D01*
X108049Y82692D01*
X107986Y82706D01*
X107923Y82725D01*
X107862Y82748D01*
X107802Y82775D01*
X107745Y82806D01*
X107689Y82841D01*
X107636Y82879D01*
X107585Y82920D01*
X107537Y82965D01*
X107493Y83013D01*
X107451Y83063D01*
X107413Y83117D01*
X107378Y83172D01*
X107348Y83230D01*
X107321Y83289D01*
X107298Y83351D01*
X107279Y83413D01*
X107264Y83477D01*
X107253Y83542D01*
X107247Y83607D01*
X107245Y83672D01*
Y89672D01*
X107247Y89738D01*
X107253Y89803D01*
X107264Y89867D01*
X107279Y89931D01*
X107298Y89994D01*
X107321Y90055D01*
X107348Y90114D01*
X107378Y90172D01*
X107413Y90228D01*
X107451Y90281D01*
X107493Y90332D01*
X107537Y90379D01*
X107585Y90424D01*
X107636Y90465D01*
X107689Y90504D01*
X107744Y90538D01*
X107802Y90569D01*
X107862Y90596D01*
X107923Y90619D01*
X107986Y90638D01*
X108049Y90653D01*
X108114Y90664D01*
X108179Y90670D01*
X108244Y90672D01*
X108310Y90670D01*
D02*
G37*
G36*
X104309D02*
X104375Y90664D01*
X104439Y90653D01*
X104503Y90638D01*
X104566Y90619D01*
X104627Y90596D01*
X104686Y90569D01*
X104744Y90538D01*
X104799Y90504D01*
X104853Y90465D01*
X104903Y90424D01*
X104951Y90379D01*
X104996Y90332D01*
X105037Y90281D01*
X105075Y90228D01*
X105110Y90172D01*
X105141Y90114D01*
X105168Y90055D01*
X105191Y89994D01*
X105210Y89931D01*
X105225Y89867D01*
X105235Y89803D01*
X105242Y89738D01*
X105244Y89672D01*
Y83672D01*
X105242Y83607D01*
X105235Y83542D01*
X105225Y83477D01*
X105210Y83413D01*
X105191Y83351D01*
X105168Y83289D01*
X105141Y83230D01*
X105110Y83172D01*
X105075Y83117D01*
X105037Y83063D01*
X104996Y83013D01*
X104951Y82965D01*
X104903Y82920D01*
X104853Y82879D01*
X104799Y82841D01*
X104744Y82806D01*
X104686Y82775D01*
X104627Y82748D01*
X104566Y82725D01*
X104503Y82706D01*
X104439Y82692D01*
X104375Y82681D01*
X104309Y82674D01*
X104244Y82672D01*
X104179Y82674D01*
X104114Y82681D01*
X104049Y82692D01*
X103985Y82706D01*
X103923Y82725D01*
X103861Y82748D01*
X103802Y82775D01*
X103744Y82806D01*
X103688Y82841D01*
X103635Y82879D01*
X103585Y82920D01*
X103537Y82965D01*
X103492Y83013D01*
X103451Y83063D01*
X103413Y83117D01*
X103378Y83172D01*
X103347Y83230D01*
X103320Y83289D01*
X103297Y83351D01*
X103278Y83413D01*
X103263Y83477D01*
X103253Y83542D01*
X103246Y83607D01*
X103244Y83672D01*
Y89672D01*
X103246Y89738D01*
X103253Y89803D01*
X103263Y89867D01*
X103278Y89931D01*
X103297Y89994D01*
X103320Y90055D01*
X103347Y90114D01*
X103378Y90172D01*
X103413Y90228D01*
X103451Y90281D01*
X103492Y90332D01*
X103537Y90379D01*
X103585Y90424D01*
X103635Y90465D01*
X103688Y90504D01*
X103744Y90538D01*
X103802Y90569D01*
X103861Y90596D01*
X103923Y90619D01*
X103985Y90638D01*
X104049Y90653D01*
X104114Y90664D01*
X104179Y90670D01*
X104244Y90672D01*
X104309Y90670D01*
D02*
G37*
G36*
X100311D02*
X100377Y90664D01*
X100441Y90653D01*
X100505Y90638D01*
X100568Y90619D01*
X100629Y90596D01*
X100688Y90569D01*
X100746Y90538D01*
X100802Y90504D01*
X100855Y90465D01*
X100906Y90424D01*
X100953Y90379D01*
X100998Y90332D01*
X101039Y90281D01*
X101077Y90228D01*
X101112Y90172D01*
X101143Y90114D01*
X101170Y90055D01*
X101193Y89994D01*
X101212Y89931D01*
X101227Y89867D01*
X101237Y89803D01*
X101244Y89738D01*
X101246Y89672D01*
Y83672D01*
X101244Y83607D01*
X101237Y83542D01*
X101227Y83477D01*
X101212Y83413D01*
X101193Y83351D01*
X101170Y83289D01*
X101143Y83230D01*
X101112Y83172D01*
X101077Y83117D01*
X101039Y83063D01*
X100998Y83013D01*
X100953Y82965D01*
X100906Y82920D01*
X100855Y82879D01*
X100802Y82841D01*
X100746Y82806D01*
X100688Y82775D01*
X100629Y82748D01*
X100568Y82725D01*
X100505Y82706D01*
X100441Y82692D01*
X100377Y82681D01*
X100311Y82674D01*
X100246Y82672D01*
X100181Y82674D01*
X100115Y82681D01*
X100051Y82692D01*
X99987Y82706D01*
X99924Y82725D01*
X99863Y82748D01*
X99804Y82775D01*
X99746Y82806D01*
X99691Y82841D01*
X99637Y82879D01*
X99587Y82920D01*
X99539Y82965D01*
X99494Y83013D01*
X99453Y83063D01*
X99415Y83117D01*
X99380Y83172D01*
X99349Y83230D01*
X99322Y83289D01*
X99299Y83351D01*
X99280Y83413D01*
X99265Y83477D01*
X99255Y83542D01*
X99248Y83607D01*
X99246Y83672D01*
Y89672D01*
X99248Y89738D01*
X99255Y89803D01*
X99265Y89867D01*
X99280Y89931D01*
X99299Y89994D01*
X99322Y90055D01*
X99349Y90114D01*
X99380Y90172D01*
X99415Y90228D01*
X99453Y90281D01*
X99494Y90332D01*
X99539Y90379D01*
X99587Y90424D01*
X99637Y90465D01*
X99691Y90504D01*
X99746Y90538D01*
X99804Y90569D01*
X99863Y90596D01*
X99924Y90619D01*
X99987Y90638D01*
X100051Y90653D01*
X100115Y90664D01*
X100181Y90670D01*
X100246Y90672D01*
X100311Y90670D01*
D02*
G37*
G36*
X96311D02*
X96376Y90664D01*
X96441Y90653D01*
X96504Y90638D01*
X96567Y90619D01*
X96628Y90596D01*
X96688Y90569D01*
X96746Y90538D01*
X96801Y90504D01*
X96854Y90465D01*
X96905Y90424D01*
X96953Y90379D01*
X96997Y90332D01*
X97039Y90281D01*
X97077Y90228D01*
X97112Y90172D01*
X97142Y90114D01*
X97169Y90055D01*
X97192Y89994D01*
X97212Y89931D01*
X97226Y89867D01*
X97237Y89803D01*
X97243Y89738D01*
X97246Y89672D01*
Y83672D01*
X97243Y83607D01*
X97237Y83542D01*
X97226Y83477D01*
X97212Y83413D01*
X97192Y83351D01*
X97169Y83289D01*
X97142Y83230D01*
X97112Y83172D01*
X97077Y83117D01*
X97039Y83063D01*
X96997Y83013D01*
X96953Y82965D01*
X96905Y82920D01*
X96854Y82879D01*
X96801Y82841D01*
X96746Y82806D01*
X96688Y82775D01*
X96628Y82748D01*
X96567Y82725D01*
X96504Y82706D01*
X96441Y82692D01*
X96376Y82681D01*
X96311Y82674D01*
X96246Y82672D01*
X96180Y82674D01*
X96115Y82681D01*
X96051Y82692D01*
X95987Y82706D01*
X95924Y82725D01*
X95863Y82748D01*
X95803Y82775D01*
X95746Y82806D01*
X95690Y82841D01*
X95637Y82879D01*
X95586Y82920D01*
X95538Y82965D01*
X95494Y83013D01*
X95452Y83063D01*
X95414Y83117D01*
X95379Y83172D01*
X95349Y83230D01*
X95322Y83289D01*
X95299Y83351D01*
X95280Y83413D01*
X95265Y83477D01*
X95254Y83542D01*
X95248Y83607D01*
X95246Y83672D01*
Y89672D01*
X95248Y89738D01*
X95254Y89803D01*
X95265Y89867D01*
X95280Y89931D01*
X95299Y89994D01*
X95322Y90055D01*
X95349Y90114D01*
X95379Y90172D01*
X95414Y90228D01*
X95452Y90281D01*
X95494Y90332D01*
X95538Y90379D01*
X95586Y90424D01*
X95637Y90465D01*
X95690Y90504D01*
X95745Y90538D01*
X95803Y90569D01*
X95863Y90596D01*
X95924Y90619D01*
X95987Y90638D01*
X96051Y90653D01*
X96115Y90664D01*
X96180Y90670D01*
X96246Y90672D01*
X96311Y90670D01*
D02*
G37*
G36*
X92310D02*
X92376Y90664D01*
X92440Y90653D01*
X92504Y90638D01*
X92567Y90619D01*
X92628Y90596D01*
X92687Y90569D01*
X92745Y90538D01*
X92801Y90504D01*
X92854Y90465D01*
X92905Y90424D01*
X92952Y90379D01*
X92997Y90332D01*
X93038Y90281D01*
X93076Y90228D01*
X93111Y90172D01*
X93142Y90114D01*
X93169Y90055D01*
X93192Y89994D01*
X93211Y89931D01*
X93226Y89867D01*
X93236Y89803D01*
X93243Y89738D01*
X93245Y89672D01*
Y83672D01*
X93243Y83607D01*
X93236Y83542D01*
X93226Y83477D01*
X93211Y83413D01*
X93192Y83351D01*
X93169Y83289D01*
X93142Y83230D01*
X93111Y83172D01*
X93076Y83117D01*
X93038Y83063D01*
X92997Y83013D01*
X92952Y82965D01*
X92905Y82920D01*
X92854Y82879D01*
X92801Y82841D01*
X92745Y82806D01*
X92687Y82775D01*
X92628Y82748D01*
X92567Y82725D01*
X92504Y82706D01*
X92440Y82692D01*
X92376Y82681D01*
X92310Y82674D01*
X92245Y82672D01*
X92180Y82674D01*
X92114Y82681D01*
X92050Y82692D01*
X91986Y82706D01*
X91924Y82725D01*
X91862Y82748D01*
X91803Y82775D01*
X91745Y82806D01*
X91690Y82841D01*
X91636Y82879D01*
X91586Y82920D01*
X91538Y82965D01*
X91493Y83013D01*
X91452Y83063D01*
X91414Y83117D01*
X91379Y83172D01*
X91348Y83230D01*
X91321Y83289D01*
X91298Y83351D01*
X91279Y83413D01*
X91264Y83477D01*
X91254Y83542D01*
X91247Y83607D01*
X91245Y83672D01*
Y89672D01*
X91247Y89738D01*
X91254Y89803D01*
X91264Y89867D01*
X91279Y89931D01*
X91298Y89994D01*
X91321Y90055D01*
X91348Y90114D01*
X91379Y90172D01*
X91414Y90228D01*
X91452Y90281D01*
X91493Y90332D01*
X91538Y90379D01*
X91586Y90424D01*
X91636Y90465D01*
X91690Y90504D01*
X91745Y90538D01*
X91803Y90569D01*
X91862Y90596D01*
X91924Y90619D01*
X91986Y90638D01*
X92050Y90653D01*
X92114Y90664D01*
X92180Y90670D01*
X92245Y90672D01*
X92310Y90670D01*
D02*
G37*
G36*
X88310D02*
X88375Y90664D01*
X88440Y90653D01*
X88503Y90638D01*
X88566Y90619D01*
X88627Y90596D01*
X88687Y90569D01*
X88744Y90538D01*
X88800Y90504D01*
X88853Y90465D01*
X88904Y90424D01*
X88952Y90379D01*
X88996Y90332D01*
X89038Y90281D01*
X89076Y90228D01*
X89111Y90172D01*
X89142Y90114D01*
X89168Y90055D01*
X89192Y89994D01*
X89211Y89931D01*
X89225Y89867D01*
X89236Y89803D01*
X89242Y89738D01*
X89245Y89672D01*
Y83672D01*
X89242Y83607D01*
X89236Y83542D01*
X89225Y83477D01*
X89211Y83413D01*
X89192Y83351D01*
X89168Y83289D01*
X89142Y83230D01*
X89111Y83172D01*
X89076Y83117D01*
X89038Y83063D01*
X88996Y83013D01*
X88952Y82965D01*
X88904Y82920D01*
X88853Y82879D01*
X88800Y82841D01*
X88744Y82806D01*
X88687Y82775D01*
X88627Y82748D01*
X88566Y82725D01*
X88503Y82706D01*
X88440Y82692D01*
X88375Y82681D01*
X88310Y82674D01*
X88245Y82672D01*
X88179Y82674D01*
X88114Y82681D01*
X88049Y82692D01*
X87986Y82706D01*
X87923Y82725D01*
X87862Y82748D01*
X87802Y82775D01*
X87745Y82806D01*
X87689Y82841D01*
X87636Y82879D01*
X87585Y82920D01*
X87537Y82965D01*
X87493Y83013D01*
X87451Y83063D01*
X87413Y83117D01*
X87378Y83172D01*
X87348Y83230D01*
X87321Y83289D01*
X87298Y83351D01*
X87279Y83413D01*
X87264Y83477D01*
X87253Y83542D01*
X87247Y83607D01*
X87245Y83672D01*
Y89672D01*
X87247Y89738D01*
X87253Y89803D01*
X87264Y89867D01*
X87279Y89931D01*
X87298Y89994D01*
X87321Y90055D01*
X87348Y90114D01*
X87378Y90172D01*
X87413Y90228D01*
X87451Y90281D01*
X87493Y90332D01*
X87537Y90379D01*
X87585Y90424D01*
X87636Y90465D01*
X87689Y90504D01*
X87745Y90538D01*
X87802Y90569D01*
X87862Y90596D01*
X87923Y90619D01*
X87986Y90638D01*
X88049Y90653D01*
X88114Y90664D01*
X88179Y90670D01*
X88245Y90672D01*
X88310Y90670D01*
D02*
G37*
G36*
X84309D02*
X84375Y90664D01*
X84439Y90653D01*
X84503Y90638D01*
X84566Y90619D01*
X84627Y90596D01*
X84686Y90569D01*
X84744Y90538D01*
X84800Y90504D01*
X84853Y90465D01*
X84903Y90424D01*
X84951Y90379D01*
X84996Y90332D01*
X85037Y90281D01*
X85075Y90228D01*
X85110Y90172D01*
X85141Y90114D01*
X85168Y90055D01*
X85191Y89994D01*
X85210Y89931D01*
X85225Y89867D01*
X85235Y89803D01*
X85242Y89738D01*
X85244Y89672D01*
Y83672D01*
X85242Y83607D01*
X85235Y83542D01*
X85225Y83477D01*
X85210Y83413D01*
X85191Y83351D01*
X85168Y83289D01*
X85141Y83230D01*
X85110Y83172D01*
X85075Y83117D01*
X85037Y83063D01*
X84996Y83013D01*
X84951Y82965D01*
X84903Y82920D01*
X84853Y82879D01*
X84800Y82841D01*
X84744Y82806D01*
X84686Y82775D01*
X84627Y82748D01*
X84566Y82725D01*
X84503Y82706D01*
X84439Y82692D01*
X84375Y82681D01*
X84309Y82674D01*
X84244Y82672D01*
X84179Y82674D01*
X84114Y82681D01*
X84049Y82692D01*
X83985Y82706D01*
X83923Y82725D01*
X83861Y82748D01*
X83802Y82775D01*
X83744Y82806D01*
X83689Y82841D01*
X83635Y82879D01*
X83585Y82920D01*
X83537Y82965D01*
X83492Y83013D01*
X83451Y83063D01*
X83413Y83117D01*
X83378Y83172D01*
X83347Y83230D01*
X83320Y83289D01*
X83297Y83351D01*
X83278Y83413D01*
X83263Y83477D01*
X83253Y83542D01*
X83246Y83607D01*
X83244Y83672D01*
Y89672D01*
X83246Y89738D01*
X83253Y89803D01*
X83263Y89867D01*
X83278Y89931D01*
X83297Y89994D01*
X83320Y90055D01*
X83347Y90114D01*
X83378Y90172D01*
X83413Y90228D01*
X83451Y90281D01*
X83492Y90332D01*
X83537Y90379D01*
X83585Y90424D01*
X83635Y90465D01*
X83689Y90504D01*
X83744Y90538D01*
X83802Y90569D01*
X83861Y90596D01*
X83923Y90619D01*
X83985Y90638D01*
X84049Y90653D01*
X84114Y90664D01*
X84179Y90670D01*
X84244Y90672D01*
X84309Y90670D01*
D02*
G37*
G36*
X46376Y80631D02*
Y76131D01*
X45876Y75631D01*
X41076D01*
X40376Y76131D01*
Y80631D01*
X41076Y81131D01*
X45876D01*
X46376Y80631D01*
D02*
G37*
G36*
X36776D02*
Y76131D01*
X36076Y75631D01*
X31276D01*
X30776Y76131D01*
Y80631D01*
X31276Y81131D01*
X36076D01*
X36776Y80631D01*
D02*
G37*
G36*
X137540Y68055D02*
Y63255D01*
X137040Y62555D01*
X132540D01*
X132040Y63255D01*
Y68055D01*
X132540Y68555D01*
X137040D01*
X137540Y68055D01*
D02*
G37*
G36*
X123680D02*
Y63255D01*
X123180Y62555D01*
X118680D01*
X118180Y63255D01*
Y68055D01*
X118680Y68555D01*
X123180D01*
X123680Y68055D01*
D02*
G37*
G36*
X82102D02*
Y63255D01*
X81602Y62555D01*
X77102D01*
X76602Y63255D01*
Y68055D01*
X77102Y68555D01*
X81602D01*
X82102Y68055D01*
D02*
G37*
G36*
X95961Y67853D02*
Y63053D01*
X95461Y62353D01*
X90961D01*
X90461Y63053D01*
Y67853D01*
X90961Y68353D01*
X95461D01*
X95961Y67853D01*
D02*
G37*
G36*
X109821Y67740D02*
Y62940D01*
X109321Y62240D01*
X104821D01*
X104321Y62940D01*
Y67740D01*
X104821Y68240D01*
X109321D01*
X109821Y67740D01*
D02*
G37*
G36*
X46376Y66655D02*
Y62154D01*
X45876Y61655D01*
X41076D01*
X40376Y62154D01*
Y66655D01*
X41076Y67154D01*
X45876D01*
X46376Y66655D01*
D02*
G37*
G36*
X36776D02*
Y62154D01*
X36076Y61655D01*
X31276D01*
X30776Y62154D01*
Y66655D01*
X31276Y67154D01*
X36076D01*
X36776Y66655D01*
D02*
G37*
G36*
X137540Y58255D02*
Y53455D01*
X137040Y52955D01*
X132540D01*
X132040Y53455D01*
Y58255D01*
X132540Y58955D01*
X137040D01*
X137540Y58255D01*
D02*
G37*
G36*
X123680D02*
Y53455D01*
X123180Y52955D01*
X118680D01*
X118180Y53455D01*
Y58255D01*
X118680Y58955D01*
X123180D01*
X123680Y58255D01*
D02*
G37*
G36*
X82102D02*
Y53455D01*
X81602Y52955D01*
X77102D01*
X76602Y53455D01*
Y58255D01*
X77102Y58955D01*
X81602D01*
X82102Y58255D01*
D02*
G37*
G36*
X95961Y58053D02*
Y53253D01*
X95461Y52753D01*
X90961D01*
X90461Y53253D01*
Y58053D01*
X90961Y58753D01*
X95461D01*
X95961Y58053D01*
D02*
G37*
G36*
X109821Y57940D02*
Y53140D01*
X109321Y52640D01*
X104821D01*
X104321Y53140D01*
Y57940D01*
X104821Y58640D01*
X109321D01*
X109821Y57940D01*
D02*
G37*
D15*
X158477Y77562D02*
D03*
Y58563D02*
D03*
Y125797D02*
D03*
Y144796D02*
D03*
X37763Y29778D02*
D03*
Y48777D02*
D03*
Y115863D02*
D03*
Y96863D02*
D03*
D16*
X179949Y72542D02*
D03*
Y58542D02*
D03*
X180212Y127146D02*
D03*
Y141146D02*
D03*
X16165Y46613D02*
D03*
Y32613D02*
D03*
X16509Y99255D02*
D03*
Y113256D02*
D03*
X88510Y167351D02*
D03*
Y153350D02*
D03*
D17*
X56516Y140979D02*
D03*
X56513Y156968D02*
D03*
M02*
