M48
;Layer_Color=9474304
;FILE_FORMAT=4:4
METRIC,LZ
;TYPE=PLATED
T01F00S00C0.3000
%
T01
X00006615Y00091538
X00054906Y00064614
X00076514Y0004304
X00091418Y00044004
X0011049Y0004318
X00134612Y000424
X00113306Y00067038
X0010922Y0010287
X0009271
X00092096Y00120596
X0010922Y0012065
X0015494Y001016
X0018034Y0011811
X00170048Y00168665
X00128353Y00170003
X0011082Y00171916
X00104624Y00146154
X00078045Y00170966
X0002413Y0017018
X0003937Y0014097
M30
