G04*
G04 #@! TF.GenerationSoftware,Altium Limited,Altium Designer,25.0.2 (28)*
G04*
G04 Layer_Color=32768*
%FSLAX44Y44*%
%MOMM*%
G71*
G04*
G04 #@! TF.SameCoordinates,45B9F587-651D-48FE-9BFB-3449DA8E954A*
G04*
G04*
G04 #@! TF.FilePolarity,Positive*
G04*
G01*
G75*
%ADD43C,0.0508*%
G36*
X85109Y168600D02*
Y168350D01*
X92509D01*
Y165350D01*
X84510D01*
Y167752D01*
X84261D01*
X83909Y168103D01*
Y168600D01*
X84261Y168951D01*
X84757D01*
X85109Y168600D01*
D02*
G37*
G36*
X125802Y162159D02*
X120802D01*
Y164658D01*
X125802D01*
Y162159D01*
D02*
G37*
G36*
X42192Y155685D02*
X37192D01*
Y158185D01*
X42192D01*
Y155685D01*
D02*
G37*
G36*
X125802Y155245D02*
X126050D01*
X126401Y154894D01*
Y154397D01*
X126050Y154046D01*
X125553D01*
X125202Y154397D01*
Y154655D01*
X120802D01*
Y157155D01*
X125802D01*
Y155245D01*
D02*
G37*
G36*
X60479Y153978D02*
X52479D01*
Y156978D01*
X60479D01*
Y153978D01*
D02*
G37*
G36*
X92509Y152350D02*
X84510D01*
Y155350D01*
X92509D01*
Y152350D01*
D02*
G37*
G36*
X42192Y148772D02*
X42440D01*
X42791Y148420D01*
Y147924D01*
X42440Y147572D01*
X41943D01*
X41592Y147924D01*
Y148182D01*
X37192D01*
Y150682D01*
X42192D01*
Y148772D01*
D02*
G37*
G36*
X60550Y141579D02*
X60798D01*
X61149Y141227D01*
Y140730D01*
X60798Y140379D01*
X60301D01*
X59950Y140730D01*
Y140978D01*
X52550D01*
Y143978D01*
X60550D01*
Y141579D01*
D02*
G37*
G36*
X166727Y139797D02*
X150227D01*
Y147797D01*
X166727D01*
Y139797D01*
D02*
G37*
G36*
X184212Y139146D02*
X176212D01*
Y142146D01*
X184212D01*
Y139146D01*
D02*
G37*
G36*
X77846Y136913D02*
Y136664D01*
Y136416D01*
X77495Y136065D01*
X76998D01*
X76647Y136416D01*
Y136664D01*
Y136913D01*
X76998Y137264D01*
X77495D01*
X77846Y136913D01*
D02*
G37*
G36*
X121245Y132665D02*
X119245D01*
Y136665D01*
X121245D01*
Y132665D01*
D02*
G37*
G36*
X117245D02*
X115245D01*
Y136665D01*
X117245D01*
Y132665D01*
D02*
G37*
G36*
X113245D02*
X111245D01*
Y136665D01*
X113245D01*
Y132665D01*
D02*
G37*
G36*
X109245D02*
X107245D01*
Y136665D01*
X109245D01*
Y132665D01*
D02*
G37*
G36*
X105245D02*
X103245D01*
Y136665D01*
X105245D01*
Y132665D01*
D02*
G37*
G36*
X101245D02*
X99245D01*
Y136665D01*
X101245D01*
Y132665D01*
D02*
G37*
G36*
X97245D02*
X95245D01*
Y136665D01*
X97245D01*
Y132665D01*
D02*
G37*
G36*
X93245D02*
X91245D01*
Y136665D01*
X93245D01*
Y132665D01*
D02*
G37*
G36*
X89245D02*
X87245D01*
Y136665D01*
X89245D01*
Y132665D01*
D02*
G37*
G36*
X85245D02*
X83245D01*
Y136665D01*
X85245D01*
Y132665D01*
D02*
G37*
G36*
X127245Y128665D02*
X123245D01*
Y130665D01*
X127245D01*
Y128665D01*
D02*
G37*
G36*
X81245D02*
X77245D01*
Y130665D01*
X81245D01*
Y128665D01*
D02*
G37*
G36*
X184212Y126745D02*
X184461D01*
X184813Y126393D01*
Y125897D01*
X184461Y125545D01*
X183964D01*
X183613Y125897D01*
Y126146D01*
X176212D01*
Y129146D01*
X184212D01*
Y126745D01*
D02*
G37*
G36*
X127245Y124665D02*
X123245D01*
Y126665D01*
X127245D01*
Y124665D01*
D02*
G37*
G36*
X81245D02*
X77245D01*
Y126665D01*
X81245D01*
Y124665D01*
D02*
G37*
G36*
X166727Y122796D02*
X150227D01*
Y130796D01*
X166727D01*
Y122796D01*
D02*
G37*
G36*
X169077Y123045D02*
Y122548D01*
X168726Y122196D01*
X168229D01*
X167877Y122548D01*
Y123045D01*
X168229Y123396D01*
X168726D01*
X169077Y123045D01*
D02*
G37*
G36*
X127245Y120665D02*
X123245D01*
Y122665D01*
X127245D01*
Y120665D01*
D02*
G37*
G36*
X81245D02*
X77245D01*
Y122665D01*
X81245D01*
Y120665D01*
D02*
G37*
G36*
X28363Y119112D02*
Y118615D01*
X28012Y118263D01*
X27515D01*
X27163Y118615D01*
Y119112D01*
X27515Y119463D01*
X28012D01*
X28363Y119112D01*
D02*
G37*
G36*
X127245Y116665D02*
X123245D01*
Y118665D01*
X127245D01*
Y116665D01*
D02*
G37*
G36*
X81245D02*
X77245D01*
Y118665D01*
X81245D01*
Y116665D01*
D02*
G37*
G36*
X127245Y112665D02*
X123245D01*
Y114665D01*
X127245D01*
Y112665D01*
D02*
G37*
G36*
X81245D02*
X77245D01*
Y114665D01*
X81245D01*
Y112665D01*
D02*
G37*
G36*
X20509Y111256D02*
X12509D01*
Y114255D01*
X20509D01*
Y111256D01*
D02*
G37*
G36*
X46013Y110863D02*
X29513D01*
Y118863D01*
X46013D01*
Y110863D01*
D02*
G37*
G36*
X127245Y108665D02*
X123245D01*
Y110665D01*
X127245D01*
Y108665D01*
D02*
G37*
G36*
X81245D02*
X77245D01*
Y110665D01*
X81245D01*
Y108665D01*
D02*
G37*
G36*
X127245Y104665D02*
X123245D01*
Y106665D01*
X127245D01*
Y104665D01*
D02*
G37*
G36*
X81245D02*
X77245D01*
Y106665D01*
X81245D01*
Y104665D01*
D02*
G37*
G36*
X127245Y100665D02*
X123245D01*
Y102665D01*
X127245D01*
Y100665D01*
D02*
G37*
G36*
X81245D02*
X77245D01*
Y102665D01*
X81245D01*
Y100665D01*
D02*
G37*
G36*
X20509Y98854D02*
X20758D01*
X21109Y98503D01*
Y98006D01*
X20758Y97655D01*
X20261D01*
X19910Y98006D01*
Y98256D01*
X12509D01*
Y101256D01*
X20509D01*
Y98854D01*
D02*
G37*
G36*
X127245Y96665D02*
X123245D01*
Y98665D01*
X127245D01*
Y96665D01*
D02*
G37*
G36*
X81245D02*
X77245D01*
Y98665D01*
X81245D01*
Y96665D01*
D02*
G37*
G36*
X119245Y94665D02*
X85245D01*
Y128665D01*
X119245D01*
Y94665D01*
D02*
G37*
G36*
X46013Y93863D02*
X29513D01*
Y101863D01*
X46013D01*
Y93863D01*
D02*
G37*
G36*
X127245Y92665D02*
X123245D01*
Y94665D01*
X127245D01*
Y92665D01*
D02*
G37*
G36*
X81245D02*
X77245D01*
Y94665D01*
X81245D01*
Y92665D01*
D02*
G37*
G36*
X121245Y86665D02*
X119245D01*
Y90665D01*
X121245D01*
Y86665D01*
D02*
G37*
G36*
X117245D02*
X115245D01*
Y90665D01*
X117245D01*
Y86665D01*
D02*
G37*
G36*
X113245D02*
X111245D01*
Y90665D01*
X113245D01*
Y86665D01*
D02*
G37*
G36*
X109245D02*
X107245D01*
Y90665D01*
X109245D01*
Y86665D01*
D02*
G37*
G36*
X105245D02*
X103245D01*
Y90665D01*
X105245D01*
Y86665D01*
D02*
G37*
G36*
X101245D02*
X99245D01*
Y90665D01*
X101245D01*
Y86665D01*
D02*
G37*
G36*
X97245D02*
X95245D01*
Y90665D01*
X97245D01*
Y86665D01*
D02*
G37*
G36*
X93245D02*
X91245D01*
Y90665D01*
X93245D01*
Y86665D01*
D02*
G37*
G36*
X89245D02*
X87245D01*
Y90665D01*
X89245D01*
Y86665D01*
D02*
G37*
G36*
X85245D02*
X83245D01*
Y90665D01*
X85245D01*
Y86665D01*
D02*
G37*
G36*
X149077Y80812D02*
Y80315D01*
X148726Y79963D01*
X148229D01*
X147878Y80315D01*
Y80812D01*
X148229Y81163D01*
X148726D01*
X149077Y80812D01*
D02*
G37*
G36*
X166727Y72563D02*
X150227D01*
Y80563D01*
X166727D01*
Y72563D01*
D02*
G37*
G36*
X176548Y73791D02*
Y73542D01*
X183949D01*
Y70542D01*
X175949D01*
Y72943D01*
X175700D01*
X175349Y73295D01*
Y73791D01*
X175700Y74143D01*
X176197D01*
X176548Y73791D01*
D02*
G37*
G36*
X183949Y57542D02*
X175949D01*
Y60542D01*
X183949D01*
Y57542D01*
D02*
G37*
G36*
X166727Y55563D02*
X150227D01*
Y63562D01*
X166727D01*
Y55563D01*
D02*
G37*
G36*
X12764Y47862D02*
Y47613D01*
X20165D01*
Y44613D01*
X12165D01*
Y47014D01*
X11916D01*
X11564Y47366D01*
Y47862D01*
X11916Y48214D01*
X12412D01*
X12764Y47862D01*
D02*
G37*
G36*
X46013Y43777D02*
X29513D01*
Y51777D01*
X46013D01*
Y43777D01*
D02*
G37*
G36*
X20165Y31613D02*
X12165D01*
Y34613D01*
X20165D01*
Y31613D01*
D02*
G37*
G36*
X46013Y26777D02*
X29513D01*
Y34777D01*
X46013D01*
Y26777D01*
D02*
G37*
G36*
X48363Y27025D02*
Y26528D01*
X48012Y26177D01*
X47515D01*
X47163Y26528D01*
Y27025D01*
X47515Y27377D01*
X48012D01*
X48363Y27025D01*
D02*
G37*
D43*
X148477Y80563D02*
X168477D01*
Y55563D02*
Y80563D01*
X148477Y55563D02*
X168477D01*
X148477D02*
Y80563D01*
X175949Y57542D02*
Y73542D01*
Y57542D02*
X183949D01*
Y73542D01*
X175949D02*
X183949D01*
X184212Y126146D02*
Y142146D01*
X176212D02*
X184212D01*
X176212Y126146D02*
Y142146D01*
Y126146D02*
X184212D01*
X148477Y122796D02*
X168477D01*
X148477D02*
Y147797D01*
X168477D01*
Y122796D02*
Y147797D01*
X27763Y26777D02*
X47763D01*
X27763D02*
Y51777D01*
X47763D01*
Y26777D02*
Y51777D01*
X12165Y31613D02*
Y47613D01*
Y31613D02*
X20165D01*
Y47613D01*
X12165D02*
X20165D01*
X27763Y118863D02*
X47763D01*
Y93863D02*
Y118863D01*
X27763Y93863D02*
X47763D01*
X27763D02*
Y118863D01*
X20509Y98256D02*
Y114255D01*
X12509D02*
X20509D01*
X12509Y98256D02*
Y114255D01*
Y98256D02*
X20509D01*
X120802Y154644D02*
X125802D01*
X120802D02*
Y164644D01*
X125802D01*
Y154644D02*
Y164644D01*
X84510Y152350D02*
Y168350D01*
Y152350D02*
X92509D01*
Y168350D01*
X84510D02*
X92509D01*
X37192Y148171D02*
X42192D01*
X37192D02*
Y158171D01*
X42192D01*
Y148171D02*
Y158171D01*
X60515Y140978D02*
Y156978D01*
X52515D02*
X60515D01*
X52515Y140978D02*
Y156978D01*
Y140978D02*
X60515D01*
X77245Y136665D02*
X127245D01*
Y86665D02*
Y136665D01*
X77245Y86665D02*
X127245D01*
X77245D02*
Y136665D01*
M02*
