G04*
G04 #@! TF.GenerationSoftware,Altium Limited,Altium Designer,25.0.2 (28)*
G04*
G04 Layer_Color=8388736*
%FSLAX44Y44*%
%MOMM*%
G71*
G04*
G04 #@! TF.SameCoordinates,094DCD80-2F59-4459-B3C7-35127A891B43*
G04*
G04*
G04 #@! TF.FilePolarity,Negative*
G04*
G01*
G75*
%ADD18R,0.6416X0.8917*%
%ADD19R,2.0032X1.3032*%
%ADD20R,1.1032X1.0032*%
%ADD21R,0.6416X0.6673*%
%ADD22R,0.8917X0.6416*%
%ADD23R,1.0032X1.0032*%
%ADD24O,0.9000X0.3000*%
%ADD25O,0.3000X0.9000*%
%ADD26R,3.5000X3.5000*%
%ADD27R,2.1000X2.1000*%
D18*
X109113Y167339D02*
D03*
Y156438D02*
D03*
X79352Y55305D02*
D03*
Y66206D02*
D03*
X120930D02*
D03*
Y55305D02*
D03*
X134790D02*
D03*
Y66206D02*
D03*
X93211Y55103D02*
D03*
Y66004D02*
D03*
X107071Y65891D02*
D03*
Y54990D02*
D03*
X24130Y140599D02*
D03*
Y151501D02*
D03*
D19*
X158477Y77562D02*
D03*
Y58563D02*
D03*
Y125797D02*
D03*
Y144796D02*
D03*
X37763Y29778D02*
D03*
Y48777D02*
D03*
Y115863D02*
D03*
Y96863D02*
D03*
D20*
X179949Y72542D02*
D03*
Y58542D02*
D03*
X180398Y129375D02*
D03*
Y143376D02*
D03*
X16229Y45288D02*
D03*
Y31287D02*
D03*
X16509Y99255D02*
D03*
Y113256D02*
D03*
X89776Y170229D02*
D03*
Y156228D02*
D03*
D21*
X123302Y163972D02*
D03*
Y155316D02*
D03*
X39692Y157499D02*
D03*
Y148843D02*
D03*
D22*
X164741Y163229D02*
D03*
X153840D02*
D03*
X153840Y108600D02*
D03*
X164741D02*
D03*
Y94248D02*
D03*
X153840D02*
D03*
X33126Y64404D02*
D03*
X44027D02*
D03*
X33126Y78381D02*
D03*
X44027D02*
D03*
D23*
X56516Y140979D02*
D03*
X56513Y156968D02*
D03*
D24*
X77245Y129667D02*
D03*
Y125666D02*
D03*
Y121666D02*
D03*
Y117665D02*
D03*
Y113665D02*
D03*
Y109667D02*
D03*
Y105666D02*
D03*
Y101666D02*
D03*
Y97665D02*
D03*
Y93665D02*
D03*
X127245D02*
D03*
Y97665D02*
D03*
Y101666D02*
D03*
Y105666D02*
D03*
Y109667D02*
D03*
Y113665D02*
D03*
Y117665D02*
D03*
Y121666D02*
D03*
Y125666D02*
D03*
Y129667D02*
D03*
D25*
X84244Y136665D02*
D03*
X88245D02*
D03*
X92245D02*
D03*
X96246D02*
D03*
X100246D02*
D03*
X104244D02*
D03*
X108244D02*
D03*
X112245D02*
D03*
X116245D02*
D03*
X120246D02*
D03*
Y86665D02*
D03*
X116245D02*
D03*
X112245D02*
D03*
X108244D02*
D03*
X104244D02*
D03*
X100246D02*
D03*
X96246D02*
D03*
X92245D02*
D03*
X88245D02*
D03*
X84244D02*
D03*
D26*
X102245Y111666D02*
D03*
D27*
X133308Y12453D02*
D03*
X12776D02*
D03*
X12975Y72757D02*
D03*
X60791Y12453D02*
D03*
X84963D02*
D03*
X109135D02*
D03*
X157480D02*
D03*
X186740D02*
D03*
X186896Y38159D02*
D03*
X184084Y161816D02*
D03*
X182775Y188203D02*
D03*
X158809D02*
D03*
X134842D02*
D03*
X110875D02*
D03*
X86909D02*
D03*
X62942D02*
D03*
X38975D02*
D03*
X15008D02*
D03*
M02*
